<?xml version="1.0" encoding="UTF-8"?>
<svg id="Camada_2" data-name="Camada 2" xmlns="http://www.w3.org/2000/svg" viewBox="0 0 86.25 80.25">
  <g id="Camada_1-2" data-name="Camada 1">
    <g>
      <path fill="#e84436" class="cls-2" d="M7.98,22.43C18.84.79,46.98-6.29,66.53,8.37l3.01,2.71-10.97,10.98c-.27.19-.46.13-.74,0-.4-.19-1.89-1.67-2.62-2.13-12.68-8.09-29.49-1.21-34.03,12.72-.14.14-.38.33-.49.25-3.75-2.71-8.53-6.17-11.92-9.22-.71-.35-.98-.77-.8-1.25Z"/>
      <path fill="#32a853" class="cls-1" d="M56.59,60.06l.6-.16c3.98,3.1,7.95,6.2,11.93,9.31l-.07.58s-.03.44-.24.62c-19.49,16.61-49.61,9.94-60.83-12.83l-.12-.54,12.79-9.65.54.22c4.75,14.51,22.53,20.98,35.4,12.46Z"/>
      <path fill="#517cbe" class="cls-3" d="M69.05,69.78l-12.46-9.72c3.86-2.56,6.83-7.18,7.73-11.71h-21.19v-15.45h37.02c.55,1.2.78,3.21.87,4.61.71,11.49-2.63,24.35-11.34,32.29-.28.25-.6-.04-.62-.02Z"/>
      <path fill="#fbbc0c" class="cls-4" d="M21.19,32.65c-1.63,5.01-1.64,9.94,0,14.95l-13.21,9.97c-5.6-11.35-5.71-23.77,0-35.14l13.21,10.22Z"/>
    </g>
  </g>
</svg>