<?xml version="1.0" encoding="UTF-8"?>
<svg id="Camada_2" data-name="Camada 2" xmlns="http://www.w3.org/2000/svg" viewBox="0 0 100.22 100.07">
  <defs>
    <style>
      .cls-1 {
        fill: #1d1d1b;
      }

      .cls-2 {
        fill: #fff;
      }

      .cls-3 {
        fill: #1e1e1c;
      }
    </style>
  </defs>
  <g id="Camada_1-2" data-name="Camada 1">
    <g>
      <path class="cls-2" d="M54.82,100.07h-9.48C23.67,99.37,2.91,80.12.21,58.68c.5-5.65-.67-12.44,0-17.96,0-4.33,1.46-8.12,3.31-11.98C9.34,16.65,17.87,8.41,30.11,2.95c4.43-1.98,7.02-2.51,11.78-2.79,3.93-.23,8.18-.18,12.13-.06,6.65.2,10.28.39,16.52,3.45,13.49,6.6,24.74,19.21,28.4,33.93,1.62,6.51,1.67,17.05.29,23.63-4.28,20.53-22.84,38.8-44.41,38.96Z"/>
      <path class="cls-1" d="M36.06,24.07l27.85-.04c6.58,1.1,11.56,6.16,12.37,12.82-.55,8.63.73,18.16,0,26.69-.56,6.5-6.34,12.28-12.84,12.84-8.6.74-18.22-.56-26.94,0-6.61-.98-11.61-5.98-12.59-12.59l.06-27.62c1.13-6.27,5.83-10.96,12.09-12.09Z"/>
      <path class="cls-2" d="M39.06,28.57c6.79-.72,14.5.4,21.39-.08,16.42,2,10.1,20.97,11.34,32.31-2.27,16.17-21.01,9.84-32.3,11.1-16.13-2.28-9.85-20.8-11.11-32.06.38-5.76,4.9-10.65,10.68-11.26Z"/>
      <circle class="cls-1" cx="50.05" cy="50.16" r="13.43"/>
      <circle class="cls-3" cx="64.24" cy="36.03" r="3.18"/>
      <circle class="cls-2" cx="49.97" cy="50.2" r="8.91"/>
    </g>
  </g>
</svg>