<?xml version="1.0" encoding="utf-8"?>
<!DOCTYPE svg PUBLIC "-//W3C//DTD SVG 1.0//EN" "http://www.w3.org/TR/2001/REC-SVG-20010904/DTD/svg10.dtd">
<svg version="1.0" xmlns="http://www.w3.org/2000/svg" width="378px" height="388px" viewBox="0 0 378 388" preserveAspectRatio="xMidYMid meet">
 <g fill="#faf8cb">
  <path d="M278.35 296.15 c-0.80 -0.20 -0.85 -0.75 -0.75 -4.30 0.15 -3.80 0.25 -4.10 1.30 -4.25 1.05 -0.15 1.10 -0.35 1.10 -5.05 0 -5 0.35 -6.05 2.10 -6.05 0.85 0 0.90 -0.45 0.80 -6.10 -0.15 -6.05 -0.15 -6.10 -1.40 -6.40 -1.25 -0.30 -1.25 -0.35 -1.25 -5.75 l0 -5.50 2.90 -0.15 2.85 -0.15 0 4.05 c0 3.95 0 4 1.25 4 l1.25 0 0 9.75 0 9.75 -1.25 0 c-1.20 0 -1.20 0.05 -1.35 5.40 -0.15 5.10 -0.20 5.35 -1.25 5.50 -0.95 0.15 -1.10 0.50 -1.25 2.75 l-0.15 2.60 -2 0.10 c-1.10 0 -2.40 -0.05 -2.90 -0.20z"/>
  <path d="M242.70 270.80 c-0.15 -0.75 -0.70 -1.30 -1.35 -1.40 -0.95 -0.15 -1.10 -0.50 -1.25 -3 l-0.15 -2.90 2.75 0 c2.60 0 2.75 0.05 2.90 1.40 0.10 1.05 0.45 1.40 1.55 1.50 1.30 0.15 1.35 0.30 1.35 2.90 l0 2.70 -2.75 0 c-2.50 0 -2.75 -0.10 -3.05 -1.20z"/>
  <path d="M272 257 l0 -9.50 3 0 3 0 0 7.95 c0 4.35 -0.15 8.65 -0.30 9.50 -0.30 1.50 -0.40 1.55 -3 1.55 l-2.70 0 0 -9.50z"/>
  <path d="M253.85 261.15 c-0.20 -0.15 -0.35 -8.15 -0.35 -17.75 l0 -17.40 2.75 0 2.75 0 0 17.45 0 17.45 -1.10 0.30 c-1.55 0.40 -3.65 0.40 -4.05 -0.05z"/>
  <path d="M287 68.15 c0.05 -0.55 1.30 -2.15 1.70 -2.15 0.15 0 0.30 0.55 0.30 1.25 0 0.90 -0.25 1.25 -1 1.25 -0.55 0 -1 -0.15 -1 -0.35z"/>
  <path d="M281 66.65 c0.05 -0.95 1.10 -2.65 1.70 -2.65 0.40 0 0.40 1.65 0 2.70 -0.40 1.10 -1.70 1 -1.70 -0.05z"/>
 </g>
 <g fill="#fefdbf">
  <path d="M29.50 227.85 c-5.05 -1.15 -7 -3.10 -7 -6.90 0 -1.15 -1.95 -8.20 -9.80 -35.85 -0.60 -2.10 -1.10 -2.85 -2.45 -3.70 -1.60 -0.90 -1.75 -1.20 -1.75 -3.40 0 -3.25 2.25 -7.25 5.30 -9.40 2.55 -1.75 10.40 -5.50 14.40 -6.85 2.95 -1 4.75 -1.25 8.45 -1.25 4.25 0 5 0.15 7.80 1.55 3.50 1.75 6.65 5.25 7.60 8.40 0.80 2.70 0.40 9.90 -0.70 12 -0.45 0.95 -0.85 1.75 -0.85 1.80 0 0.05 0.85 0.35 1.95 0.65 5.30 1.60 10.20 6.05 12 10.90 0.80 2.10 1.05 3.90 1.05 7.65 0 8.30 -1.55 11.55 -8.05 16.75 -4.40 3.50 -8.95 5.95 -13.25 7.05 -4.10 1.05 -11.40 1.35 -14.70 0.60z m13 -17.10 c4.20 -2.15 8 -5.80 8 -7.80 0 -3.35 -6.20 -6.95 -10.20 -5.90 -4 1 -7.30 2.55 -7.30 3.40 0 0.85 3.20 11.15 3.75 12.05 0.40 0.70 1.65 0.30 5.75 -1.75z m-13.35 -26.85 c2.45 -1.25 6.90 -5.05 7.65 -6.50 0.70 -1.40 0.70 -1.55 -0.15 -2.50 -0.70 -0.80 -1.30 -0.95 -2.85 -0.75 -2.25 0.30 -8.30 3.25 -8.30 4.05 0 0.60 2.15 6.30 2.40 6.30 0.10 0 0.65 -0.25 1.25 -0.60z"/>
  <path d="M288.20 223.30 c-5 -1.85 -8.35 -4.80 -10.30 -9.05 -1 -2.15 -1.15 -3.30 -1.15 -8.25 0.05 -5.05 0.20 -6.15 1.35 -8.80 1.60 -3.80 4.80 -8.60 7 -10.45 3.25 -2.75 6.20 -3.75 11.25 -3.75 6.20 0 9.25 1.15 13.10 4.95 3.85 3.75 5.25 6.75 5.45 11.60 0.40 7.90 -3.60 11.95 -11.80 11.95 l-3.25 0 1.45 1.10 c0.80 0.65 1.70 1.45 2.05 1.90 0.75 0.95 0.85 5.70 0.10 7.10 -1.55 2.90 -9.55 3.85 -15.25 1.70z"/>
  <path d="M250.10 215.75 c-2.65 -1.20 -6.05 -3.85 -7.10 -5.55 -1.20 -1.90 -1.35 -5.95 -0.30 -8.40 1 -2.40 2.55 -3.30 5.60 -3.30 l2.60 0 -2.90 -2.90 c-3.40 -3.40 -4.25 -5.70 -3.85 -10.35 0.60 -7.55 6.50 -12.55 15.50 -13.10 10.15 -0.65 16.35 3.40 16.35 10.75 0 7.15 -4.15 9.60 -10 5.85 -1.50 -0.95 -3 -1.75 -3.30 -1.75 -0.30 0 1.45 1.95 3.85 4.35 5.65 5.50 6.95 7.95 6.95 13 0 5.60 -1.60 8.60 -5.75 10.80 -1.70 0.95 -3 1.10 -9 1.20 -5.35 0.15 -7.40 0 -8.65 -0.60z"/>
  <path d="M72.10 212.85 c-0.60 -0.35 -1.45 -1.15 -1.90 -1.75 -0.95 -1.40 -2.05 -10.90 -2.50 -22.15 l-0.35 -7.85 1.30 -1.30 c1.10 -1.10 1.75 -1.30 4.20 -1.30 5.10 0 5.35 0.50 8.15 14.25 1.05 5.25 1.50 8.95 1.50 12.35 0 4.75 -0.05 4.90 -1.55 6.65 -1.45 1.65 -1.75 1.75 -4.65 1.75 -1.65 -0.05 -3.55 -0.30 -4.20 -0.65z"/>
  <path d="M196.35 207.90 c-2.60 -1.55 -3.60 -4 -4.85 -11.90 -0.55 -3.70 -1.15 -7.30 -1.30 -8 -0.25 -1.05 -1 0.15 -4.35 6.75 -4.75 9.30 -5.90 11 -8.45 12.30 -3.40 1.75 -8.70 1.15 -11.10 -1.30 -1.35 -1.30 -1.80 -2.40 -2.70 -6.55 -1.90 -8.55 -3.60 -21.20 -5.15 -38.30 -1.05 -11.85 -0.15 -14.40 5.10 -14.40 3.55 0 4.95 1.50 6.70 7.30 1.80 5.90 3.55 13.90 4.30 19.45 0.30 2.50 0.70 4.80 0.90 5.15 0.25 0.40 2.25 -4.30 5 -11.75 4.90 -13.10 5.85 -15.05 7.80 -16.35 1.95 -1.25 7.75 -1.10 9.50 0.30 2.45 1.95 3 4.35 4.30 19.55 0.35 3.80 0.75 6.70 1 6.50 0.20 -0.20 1.05 -3.65 1.95 -7.65 2.40 -10.85 4.15 -15.95 6.10 -17.85 2.05 -1.95 3.80 -2.65 6.75 -2.65 5.10 0 7.65 2.65 7.65 8.05 0 3.95 -0.60 6.20 -7.55 27.20 -5.35 16.30 -7.35 21.05 -9.95 23.50 -1.45 1.40 -1.90 1.50 -5.65 1.65 -3.50 0.10 -4.40 -0.05 -6 -1z"/>
  <path d="M225.70 207.30 c-1.55 -1.55 -1.70 -1.95 -1.70 -4.70 0 -3.20 1.15 -7.60 4.80 -18.70 2.90 -8.85 3.35 -9.40 7.25 -9.40 2.70 0 3.20 0.15 4.50 1.45 1.90 1.90 1.85 3.25 -0.05 14.55 -2.70 16.05 -4.05 18.50 -10.25 18.50 -2.55 0 -3 -0.15 -4.55 -1.70z"/>
  <path d="M98.95 207.35 c-6.10 -1.75 -9.40 -6.40 -11.15 -15.80 -0.95 -4.90 -1.40 -5.85 -3 -6.25 -2.35 -0.60 -3.30 -2.20 -3.30 -5.45 0 -2.85 0.05 -3 2.50 -5.50 l2.50 -2.55 0 -4.70 c0 -3.95 0.15 -4.90 1.05 -6.15 1 -1.45 1.20 -1.50 4.35 -1.35 3.10 0.15 3.40 0.25 4.40 1.75 0.55 0.85 1.30 3 1.65 4.75 1.10 5.60 0.90 5.40 5.85 5.40 4.25 0 4.35 0.05 6 1.70 1.60 1.60 1.70 1.90 1.70 5 0 5.15 -1.55 6.75 -7.40 7.55 -1.45 0.20 -2.60 0.45 -2.60 0.60 0 0.15 0.35 1.50 0.80 3.05 1.15 4 1.60 4.35 4.40 3.65 1.25 -0.30 3.35 -0.55 4.70 -0.55 3 0 4.85 1.55 5.35 4.50 0.70 4.15 -1.10 7.60 -5 9.50 -2.85 1.40 -9.40 1.80 -12.80 0.85z"/>
  <path d="M129.95 204.35 c-8.40 -2.40 -12.45 -8.70 -12.45 -19.50 0 -7.30 2.15 -13.50 5.95 -17.30 7.15 -7.15 23.95 -4.50 28.60 4.55 1.35 2.65 1.35 10 0 12.20 -1.25 2.05 -3.90 4.05 -6.90 5.20 l-2.40 0.90 2.40 0.60 c3.10 0.80 4.35 2.40 4.35 5.50 0 3 -1.50 5.30 -4.50 6.95 -1.85 1.05 -3 1.25 -7.45 1.40 -3.30 0.10 -6.15 -0.10 -7.60 -0.50z m7.30 -27.85 c-0.30 -0.45 -2.15 -0.10 -2.50 0.45 -0.10 0.20 0.45 0.25 1.25 0.15 0.85 -0.10 1.40 -0.40 1.25 -0.60z"/>
  <path d="M63.90 174.65 c-1.70 -1.10 -2.40 -2.65 -2.40 -5.55 0 -4.65 2.90 -7 8.10 -6.50 3.35 0.35 5.40 2.30 5.75 5.50 0.25 2.35 -0.30 3.75 -2.55 6.30 -0.80 0.95 -1.45 1.10 -4.25 1.10 -2.20 0 -3.75 -0.30 -4.65 -0.85z"/>
  <path d="M232.80 169.70 c-1.15 -1.20 -1.30 -1.70 -1.30 -4.80 0 -3.20 0.15 -3.60 1.45 -4.95 1.30 -1.30 1.80 -1.45 4.45 -1.45 2.50 0 3.30 0.20 4.55 1.30 1.45 1.20 1.55 1.50 1.55 4.70 0 3.15 -0.10 3.55 -1.55 4.95 -1.40 1.40 -1.85 1.55 -4.65 1.55 -2.75 0 -3.35 -0.15 -4.50 -1.30z"/>
 </g>
 <g fill="#efebb8">
  <path d="M239.50 267.80 c0 -0.90 -0.30 -1.25 -1.10 -1.40 -1.05 -0.15 -1.15 -0.45 -1.15 -2.90 l0 -2.75 2.75 0 2.75 0 0.15 2.15 c0.10 1.65 0 2.10 -0.60 2.10 -1.05 0 -1.05 2.45 -0.05 2.80 1.35 0.55 0.80 1.20 -1 1.20 -1.50 0 -1.75 -0.15 -1.75 -1.20z"/>
  <path d="M264.35 263.65 c-0.20 -0.15 -0.35 -4.55 -0.35 -9.75 l0 -9.40 3 0 3 0 0 8.95 c0 4.95 -0.15 9.30 -0.30 9.75 -0.20 0.60 -1 0.80 -2.65 0.80 -1.30 0 -2.55 -0.15 -2.70 -0.35z"/>
  <path d="M151.50 181 c0 -0.35 -0.50 -1 -1.10 -1.45 l-1.05 -0.90 1.05 -1.05 c0.60 -0.60 1.10 -1.30 1.10 -1.60 0 -0.25 0.45 -0.50 1 -0.50 0.95 0 1.05 0.25 0.90 2.85 -0.10 2.30 -0.35 2.95 -1 3.05 -0.50 0.10 -0.90 -0.10 -0.90 -0.40z"/>
 </g>
 <g fill="#e5a33b">
  <path d="M269.50 255.50 l0 -8 2.75 0 c2.10 0 2.75 0.15 2.75 0.75 0 0.40 -0.35 0.75 -0.75 0.75 -0.65 0 -0.75 1.15 -0.75 7.25 l0 7.25 -2 0 -2 0 0 -8z"/>
  <path d="M267.80 85.45 c-0.75 -0.75 -0.85 -1.10 -0.40 -1.55 0.35 -0.35 0.60 -0.90 0.60 -1.25 0 -0.35 0.60 -1.90 1.30 -3.50 1.85 -4.10 2.50 -5.65 3.20 -7.65 0.35 -0.95 0.80 -2.20 1 -2.75 0.20 -0.55 0.90 -2.30 1.50 -3.90 0.65 -1.70 1.40 -2.85 1.85 -2.85 1 0 1.30 -1.10 -4.70 18.40 -2 6.45 -2.45 7 -4.35 5.05z"/>
  <path d="M273.45 84.15 c0.65 -1.30 2.60 -5.75 3.05 -6.90 0.20 -0.55 0.85 -2 1.45 -3.15 0.55 -1.20 1.05 -2.40 1.05 -2.65 0 -1.25 2.60 -5.95 3.30 -5.95 0.55 0 0.70 0.25 0.45 0.90 -0.35 0.85 -1.15 3.45 -4.35 13.50 l-1.60 5.10 -1.90 0 c-1.65 0 -1.85 -0.10 -1.45 -0.85z"/>
  <path d="M282.15 81.70 c-0.60 -0.25 0 -2.30 2.45 -7.65 1.50 -3.45 2.25 -5.20 2.60 -6.20 0.15 -0.45 0.60 -0.85 1.05 -0.85 0.80 0 1 1 0.35 1.75 -0.25 0.30 -0.70 1.50 -1.05 2.75 -0.80 2.70 -1.50 4.90 -2.05 6.25 -0.20 0.55 -0.65 1.75 -1 2.65 -0.60 1.55 -1.05 1.80 -2.35 1.30z"/>
  <path d="M290.25 76.50 c-0.15 -0.25 -0.10 -0.85 0.20 -1.35 0.75 -1.50 2.45 -5.35 2.75 -6.30 0.15 -0.50 0.55 -0.75 0.85 -0.60 0.50 0.35 0.25 2.60 -0.55 4.50 -0.20 0.55 -0.65 1.75 -1 2.65 -0.60 1.55 -1.65 2.10 -2.25 1.10z"/>
 </g>
 <g fill="#ef9d1e">
  <path d="M252.25 312.50 c-0.55 -0.25 -1.95 -0.45 -3.15 -0.45 -2.25 -0.05 -10.80 -1.85 -12.20 -2.60 -0.50 -0.25 -1.30 -0.45 -1.80 -0.45 -0.50 0 -1.10 -0.20 -1.35 -0.40 -0.30 -0.25 -1.50 -0.75 -2.75 -1.15 -2.40 -0.75 -10.90 -4.95 -13.10 -6.50 -0.70 -0.55 -1.50 -0.95 -1.75 -0.95 -0.25 0 -0.90 -0.40 -1.45 -0.90 -0.50 -0.50 -1.75 -1.45 -2.70 -2.10 -0.95 -0.65 -2.15 -1.55 -2.60 -2 -0.45 -0.40 -2.05 -1.75 -3.50 -3 -2.80 -2.35 -8.80 -9 -10.85 -11.95 -0.70 -1 -1.55 -2.10 -1.90 -2.45 -0.35 -0.35 -0.65 -0.85 -0.65 -1.10 0 -0.25 -0.30 -0.75 -0.60 -1.10 -0.85 -0.90 -2.25 -3.25 -3.30 -5.50 -0.45 -1.05 -1 -1.90 -1.20 -1.90 -0.25 0 -0.40 -0.40 -0.40 -0.90 0 -0.50 -0.20 -1.10 -0.40 -1.35 -0.25 -0.30 -0.95 -1.85 -1.55 -3.50 -0.65 -1.65 -1.35 -3.45 -1.60 -4 -0.85 -1.95 -2.45 -8.50 -2.45 -10 0 -0.85 -0.20 -1.75 -0.45 -2 -0.70 -0.75 -1.15 -7.15 -1.20 -16 0 -8.20 0.40 -13.05 1.25 -14.10 0.65 -0.80 0.05 -1.70 -0.85 -1.30 -0.50 0.15 -0.75 -0.05 -0.75 -0.75 0 -0.65 0.85 -1.65 2.20 -2.65 1.25 -0.85 2.35 -1.90 2.50 -2.25 0.15 -0.40 1 -0.70 2.10 -0.70 l1.80 0 -0.25 2.65 c-0.10 1.40 -0.75 5.40 -1.35 8.85 -3.75 20.95 2.80 43.30 17.90 60.85 3.15 3.70 10.50 10.20 14.65 12.90 10.65 7.10 24.05 11.95 35.70 13 6.75 0.55 6.75 0.60 6.75 2.50 0 1.50 -0.25 1.85 -2 2.75 -2 1.05 -5 1.25 -6.75 0.50z"/>
  <path d="M263.90 311.15 c-0.50 -0.55 -0.90 -1.70 -0.90 -2.55 0 -1.50 0.05 -1.55 2.90 -1.85 11.55 -1.30 22.85 -4.95 31.60 -10.25 19.35 -11.80 31.95 -29.45 36.55 -51.40 1.50 -7 1.60 -17.95 0.25 -25.35 -5.10 -28.10 -25 -50.95 -52 -59.80 -9.65 -3.15 -17.70 -4.15 -27.70 -3.35 l-7.15 0.55 -1.75 -1.65 c-2.25 -2.25 -2.25 -3.50 0.05 -3.50 2.95 0 3.95 -0.80 5.20 -4.15 0.60 -1.70 1.35 -3.60 1.60 -4.20 0.25 -0.65 0.65 -1.65 0.90 -2.25 0.20 -0.65 0.65 -1.70 0.95 -2.40 0.25 -0.70 0.75 -2.05 1.10 -3 0.35 -0.95 0.85 -2.30 1.10 -3 0.70 -1.65 1.10 -2.65 2.40 -6.25 0.60 -1.65 1.50 -3.90 1.95 -5 0.50 -1.10 1.30 -3.30 1.75 -4.85 0.90 -2.90 0.90 -2.90 -0.30 -4.75 -1.25 -2.10 -2.35 -5.60 -2.40 -7.80 0 -1.60 3 -11 3.60 -11.25 0.25 -0.10 0.40 -0.60 0.40 -1.10 0 -0.50 0.20 -1.10 0.50 -1.25 0.25 -0.15 0.50 -0.65 0.50 -1 0 -1.35 2.55 -6.25 3.25 -6.25 0.70 0 2.25 1.30 2.25 1.90 0 0.30 -1.15 4.30 -2.35 8.25 -0.55 1.85 0.90 0.75 1.85 -1.40 0.55 -1.25 1.45 -3.25 2 -4.50 0.55 -1.25 1 -2.45 1 -2.70 0 -0.70 3.05 -3.10 3.55 -2.75 0.85 0.50 0.25 4.10 -1.10 6.80 -0.25 0.50 -0.45 1.25 -0.45 1.65 0 0.40 -0.20 1.15 -0.45 1.65 -0.25 0.45 -0.70 1.70 -1.05 2.75 -0.90 2.85 0.10 3.35 1.35 0.75 2 -4.10 4.15 -8.85 4.15 -9.10 0 -0.70 2.60 -5.80 3.30 -6.55 1.25 -1.20 2.20 -0.15 1.70 1.90 -0.95 3.60 -1.10 4.15 -1.50 5.10 -0.25 0.55 -0.95 2.60 -1.50 4.50 -0.60 1.95 -1.30 4 -1.55 4.65 -1.30 3.20 0.15 2.75 1.70 -0.50 2.75 -5.85 4.85 -10.40 4.85 -10.65 0 -0.15 0.90 -2.15 2 -4.50 1.10 -2.35 2 -4.45 2 -4.70 0 -0.85 1.30 -1.55 1.85 -1 0.55 0.55 0.50 1.10 -0.35 3.20 -0.20 0.55 -0.90 2.70 -1.55 4.75 -0.60 2.05 -1.30 4 -1.45 4.25 -0.20 0.30 -0.60 1.50 -0.95 2.75 -0.35 1.25 -0.85 2.65 -1.10 3.10 -0.25 0.50 -0.45 1.35 -0.45 1.85 0 0.55 -0.20 1.10 -0.40 1.25 -0.25 0.15 -0.95 1.90 -1.55 3.90 -1.15 3.60 -1.50 4.60 -2.60 7.30 -1.50 3.55 -2.35 4.85 -4.40 6.65 -1.20 1.05 -2.70 1.95 -3.30 1.95 -1.80 0 -3.45 1.70 -4.20 4.30 -0.40 1.35 -0.90 2.80 -1.10 3.20 -0.25 0.40 -0.90 2.20 -1.45 4 -0.60 1.80 -1.25 3.70 -1.50 4.25 -0.20 0.55 -0.65 1.80 -1 2.75 -0.35 0.95 -0.75 2.20 -1 2.75 -0.20 0.55 -0.65 1.90 -0.95 3 -0.65 2.05 -1.35 3.85 -2.10 5.35 -0.25 0.50 -0.45 1.35 -0.45 1.85 0 0.55 -0.25 1.15 -0.55 1.30 -1.20 0.75 0.05 1.40 3.05 1.55 5.35 0.20 13.85 1.40 15.75 2.15 0.55 0.25 2.25 0.70 3.75 1 2.60 0.60 4.20 1.15 6.10 2.10 1.35 0.70 1.60 0.55 2.35 -1.15 0.40 -0.90 1.10 -2.55 1.60 -3.60 1.25 -2.65 1.20 -3.15 -0.55 -6.35 -1.90 -3.45 -1.90 -5.05 0.05 -9.70 0.25 -0.55 0.90 -2.35 1.45 -4 1.05 -3 1.40 -3.90 2.40 -6.25 0.25 -0.70 0.75 -2.05 1.10 -3 0.35 -0.95 0.90 -2.40 1.25 -3.25 0.40 -0.80 1.15 -2.75 1.75 -4.25 1.95 -5.05 5.40 -12.20 8.40 -17.50 0.70 -1.25 1.90 -3.40 2.65 -4.85 2.25 -4.25 4.40 -7.25 7.20 -9.90 4.80 -4.65 6.85 -4.85 7.15 -0.75 0.15 1.90 -0.10 2.95 -1.40 6.25 -0.20 0.55 -0.65 1.80 -1 2.75 -0.35 0.95 -0.80 2.20 -1 2.75 -0.25 0.55 -1.40 3.60 -2.50 6.75 -1.15 3.15 -2.40 6.45 -2.75 7.25 -0.40 0.85 -1.05 2.65 -1.50 4 -0.45 1.40 -1.10 3.20 -1.50 4 -0.35 0.85 -1.05 2.65 -1.50 4 -0.45 1.40 -1 2.95 -1.20 3.50 -0.25 0.55 -0.65 1.55 -0.90 2.25 -0.30 0.70 -0.75 1.80 -1.05 2.50 -0.25 0.70 -0.75 2.05 -1.10 3 -0.35 0.95 -0.80 2.20 -1 2.75 -0.25 0.55 -0.55 1.45 -0.75 2 -0.20 0.55 -1.05 2.80 -1.85 5 -0.80 2.20 -2 5.70 -2.70 7.75 -0.70 2.05 -1.45 4.20 -1.70 4.75 -0.25 0.55 -0.80 2 -1.20 3.25 -0.40 1.25 -0.85 2.60 -1.05 3.05 -0.25 0.65 0.35 1.15 2.60 2.25 1.60 0.75 3 1.55 3.15 1.70 0.15 0.20 1.65 1.25 3.35 2.40 l3.05 2.10 1.45 -1.70 c1.65 -1.95 2.35 -2.80 4.65 -5.80 0.95 -1.25 1.85 -2.35 2 -2.50 0.15 -0.15 0.85 -1.05 1.50 -2 0.65 -0.95 1.50 -2.05 1.85 -2.40 0.35 -0.35 2.60 -3.30 5 -6.50 2.40 -3.20 4.65 -6.15 5 -6.50 0.35 -0.35 1.45 -1.70 2.50 -3 1.05 -1.30 2 -2.45 2.15 -2.60 0.15 -0.15 1.95 -2.15 4 -4.50 5.85 -6.75 17.50 -17.85 21.05 -20.15 0.70 -0.50 2.55 -1.20 4.15 -1.60 4.20 -1.10 6.70 -0.30 9.85 3.15 2.40 2.60 2.45 2.75 2.45 5.90 0 3.35 -0.60 4.85 -3.55 8.95 -0.80 1.10 -2.40 3.35 -3.55 4.95 -1.10 1.65 -2.45 3.45 -2.95 4 -1.25 1.50 -5.05 6.20 -6.20 7.75 -0.55 0.70 -1.90 2.30 -3.05 3.55 -1.15 1.25 -2.75 3.05 -3.50 4 -0.80 0.95 -4.70 4.90 -8.65 8.75 -15.15 14.65 -22.05 21.45 -22.05 21.80 0 0.15 1.25 1.95 2.75 4 1.50 2.05 2.75 3.95 2.75 4.25 0 0.25 0.40 0.95 0.90 1.50 0.95 1.10 4.10 7.20 4.10 8.05 0 0.30 0.15 0.65 0.40 0.75 0.20 0.10 0.85 1.75 1.50 3.65 0.65 1.95 1.35 3.95 1.55 4.50 0.90 2.25 1.50 4.70 2 8.25 0.30 2.05 0.65 4.65 0.85 5.75 0.60 3.65 0.80 19.95 0.25 21.75 -0.25 0.95 -0.75 3.55 -1.10 5.75 -0.30 2.20 -0.80 4.20 -1 4.50 -0.25 0.25 -0.45 0.90 -0.45 1.50 0 0.60 -0.20 1.25 -0.40 1.55 -0.25 0.25 -0.75 1.45 -1.10 2.70 -0.90 3.05 -5.30 12.25 -7.05 14.85 -0.80 1.15 -1.45 2.20 -1.45 2.35 0 0.15 -0.35 0.70 -0.70 1.15 -0.40 0.50 -1.60 2.05 -2.65 3.45 -4.30 5.85 -6.95 8.50 -15 15.25 -2 1.65 -9.85 6.70 -11.90 7.65 -1.10 0.50 -3.35 1.55 -5 2.30 -1.65 0.75 -3.55 1.55 -4.25 1.75 -1.20 0.30 -1.65 0.45 -4.50 1.60 -2.60 1.10 -9 2.20 -14.05 2.50 -4.75 0.25 -5.30 0.20 -6.05 -0.70z m96.75 -183.75 c3.50 -2 6.05 -5.10 6.60 -8.05 0.65 -3.45 -1.70 -4.40 -5.20 -2.10 -3.50 2.35 -6.60 7.90 -5.45 9.90 0.55 1 2.45 1.10 4.05 0.25z"/>
  <path d="M258.70 297.75 c-0.70 -0.70 -1.80 -1.25 -2.50 -1.25 -0.70 0 -2 -0.35 -2.85 -0.80 -0.90 -0.45 -2.05 -1.05 -2.60 -1.35 -0.55 -0.30 -1.90 -0.50 -3 -0.45 -1.10 0.05 -2.65 -0.10 -3.50 -0.30 -1.50 -0.40 -1.50 -0.50 -1.75 -4.40 -0.25 -3.65 -0.35 -3.95 -1.35 -4.10 -0.95 -0.15 -1.15 -0.50 -1.15 -2.15 0 -1.40 0.20 -1.95 0.75 -1.95 0.55 0 0.75 -0.60 0.75 -2.45 0 -2 0.15 -2.50 1 -2.70 0.70 -0.20 1 -0.70 1 -1.75 0 -1.75 0.70 -2.45 2.75 -2.70 l1.50 -0.15 0.15 -22.60 0.10 -22.65 4.25 0 c3.45 0 4.25 0.15 4.25 0.75 0 0.40 -0.35 0.75 -0.75 0.75 -0.65 0 -0.75 2.10 -0.75 15.90 0 8.75 0.15 16.05 0.30 16.20 0.50 0.50 2.20 -0.20 2.20 -0.90 0 -0.40 0.25 -0.70 0.50 -0.70 0.30 0 0.50 -2.05 0.50 -5.20 l0 -5.25 1.40 -0.15 c0.95 -0.10 1.40 -0.45 1.50 -1.25 0.15 -1.05 0.45 -1.15 2.90 -1.15 1.50 0 2.70 0.25 2.70 0.50 0 0.30 -0.35 0.50 -0.75 0.50 -0.65 0 -0.75 1.10 -0.65 8.15 0.15 7.90 0.20 8.10 1.25 8.25 0.70 0.10 1.15 -0.15 1.40 -0.85 0.40 -1.25 2.75 -1.50 2.75 -0.30 0 0.40 0.25 0.75 0.50 0.75 0.30 0 0.50 -0.35 0.50 -0.75 0 -0.40 0.20 -0.75 0.50 -0.75 0.70 0 1.15 3.20 0.75 5.30 -0.25 1.35 -0.15 1.75 0.35 1.60 0.35 -0.10 0.85 -0.70 1.15 -1.30 0.25 -0.60 0.65 -1.10 0.85 -1.10 0.25 0 0.40 -0.35 0.40 -0.75 0 -0.40 0.35 -0.75 0.75 -0.75 0.65 0 0.75 -1.10 0.75 -6.75 l0 -6.75 1.90 0 c3.35 0 4.10 0.45 4.10 2.25 0 1.20 -0.25 1.70 -1 1.90 -0.95 0.25 -1.05 0.60 -0.90 4.20 0.15 3.70 0.20 3.90 1.30 3.85 1.55 -0.05 1.65 0.75 1.50 9.05 -0.10 5.55 -0.30 6.95 -0.85 6.85 -1.65 -0.35 -2.10 0.95 -2 5.85 0.10 4.65 0.05 4.80 -1.10 5.05 -1.05 0.25 -1.20 0.60 -1.35 2.90 -0.15 2.70 -0.05 2.80 2.30 2.75 0.30 -0.05 0.60 0.35 0.60 0.85 0 0.70 -0.65 0.90 -4.15 1.20 -2.30 0.20 -4.55 0.20 -5 0 -0.60 -0.20 -0.85 -0.05 -0.85 0.70 0 1.30 -1.20 1.60 -7.15 1.60 -4.55 0 -5 -0.10 -6.15 -1.25z"/>
  <path d="M284.50 279.30 c0 -0.45 0.35 -0.80 0.80 -0.80 0.45 0 0.70 0.25 0.60 0.60 -0.30 0.90 -1.40 1.05 -1.40 0.20z"/>
  <path d="M284.65 261.75 c-0.40 -1.10 0.30 -1.65 0.85 -0.75 0.65 1 0.60 1.50 0 1.50 -0.30 0 -0.65 -0.35 -0.85 -0.75z"/>
 </g>
 <g fill="#e29315">
  <path d="M253.25 312.50 c0.15 -0.25 0.60 -0.50 0.95 -0.50 0.40 0 1.75 -0.60 3.10 -1.35 l2.45 -1.35 -1.65 -0.50 c-0.85 -0.25 -1.60 -0.75 -1.60 -1.10 0 -1.05 9.15 -1 10 0.05 0.55 0.65 0.40 0.75 -0.80 0.75 l-1.45 0 1.60 1.60 1.65 1.60 -2.40 0.65 c-2.85 0.75 -12.30 0.90 -11.85 0.15z"/>
  <path d="M247.90 298.65 l-2.90 -0.20 0 -2.90 c0 -1.65 0.35 -3.55 0.75 -4.35 l0.75 -1.45 0 1.40 c0 1.65 0.50 1.75 1.45 0.25 0.55 -0.90 0.75 -1 1.25 -0.35 0.30 0.40 1.45 1.10 2.55 1.65 1.10 0.50 2.65 1.25 3.40 1.65 1.05 0.55 1.75 0.60 2.85 0.25 1.30 -0.45 1.45 -0.40 1.60 0.55 0.10 0.65 0.80 1.40 1.75 1.85 0.90 0.40 1.65 1.05 1.65 1.40 0 0.60 -7.40 0.70 -15.10 0.25z"/>
  <path d="M267.50 298.30 c0 -0.40 0.70 -0.85 1.55 -1.05 1.25 -0.30 1.50 -0.55 1.25 -1.45 -0.25 -1 -0.10 -1.10 1.60 -1.10 1 0.05 2.15 0.25 2.50 0.50 0.40 0.25 0.90 0.20 1.20 -0.10 0.30 -0.30 1.55 -0.40 2.95 -0.25 1.60 0.20 2.70 0.05 3.15 -0.30 1.15 -0.95 1.80 -0.20 1.80 1.90 l0 1.90 -4.10 0.30 c-7.30 0.60 -11.90 0.45 -11.90 -0.35z"/>
  <path d="M239.80 282.90 c-0.15 -0.65 -0.30 -2.20 -0.30 -3.50 0 -2.20 -0.10 -2.40 -1.25 -2.40 -1 0 -1.25 -0.25 -1.25 -1.25 0 -1 -0.25 -1.25 -1.20 -1.25 -1.45 0 -1.80 -1.60 -1.80 -8.95 l0 -5.15 2.75 0.20 c3.15 0.25 3.80 0.65 2.55 1.55 -1.20 0.90 -0.85 2.55 0.60 2.75 0.80 0.15 1.10 0.50 1.10 1.40 0 0.95 0.30 1.30 1.45 1.50 1 0.20 1.55 0.70 1.75 1.50 0.25 0.85 0.65 1.20 1.55 1.20 0.80 0 1.25 -0.30 1.25 -0.75 0 -0.40 0.35 -0.75 0.75 -0.75 0.55 0 0.75 0.55 0.75 2 0 1.75 -0.15 2 -1.20 2 -1.50 0 -2.35 1 -2.20 2.55 0.10 0.85 -0.20 1.35 -1 1.70 -1.05 0.45 -1.15 0.75 -0.95 2.90 0.15 2.05 0.10 2.35 -0.70 2.35 -1.35 0 -1.20 0.90 0.20 1.15 0.70 0.15 0.45 0.25 -0.70 0.30 -1.50 0.05 -1.90 -0.15 -2.15 -1.05z"/>
  <path d="M272.65 269.15 l-1.10 -0.20 0.30 -9.60 c0.15 -5.30 0.35 -9.70 0.45 -9.80 0.05 -0.05 0.35 0 0.65 0.20 0.35 0.20 0.55 3.05 0.55 7.80 l0 7.45 1.20 0 c0.95 0 1.25 -0.35 1.50 -1.75 0.45 -2.20 1.80 -2.40 1.80 -0.30 0 0.80 0.30 1.60 0.65 1.70 0.30 0.15 0 0.30 -0.75 0.30 -1.45 0.05 -2 1.05 -0.60 1.05 0.60 0 0.45 0.40 -0.65 1.70 -1.40 1.70 -1.85 1.85 -4 1.45z"/>
  <path d="M244.35 267.65 c-0.60 -0.55 -0.40 -1.15 0.40 -1.15 0.40 0 0.75 0.35 0.75 0.75 0 0.80 -0.60 1 -1.15 0.40z"/>
  <path d="M241.50 264.25 c0 -0.40 0.25 -0.75 0.50 -0.75 0.30 0 0.50 0.35 0.50 0.75 0 0.40 -0.20 0.75 -0.50 0.75 -0.25 0 -0.50 -0.35 -0.50 -0.75z"/>
  <path d="M270.20 260.90 c0.15 -0.65 0.30 -3.80 0.30 -7 l0 -5.90 1.95 0 c1.10 0 2.15 0.25 2.30 0.50 0.20 0.30 -0.50 0.50 -1.70 0.50 l-2.05 0 0 6.50 c0 4.45 -0.20 6.50 -0.55 6.50 -0.35 0 -0.45 -0.45 -0.25 -1.10z"/>
  <path d="M179 225.40 c0 -1.05 0.25 -2.85 0.60 -4.05 l0.55 -2.20 1.20 2.30 c1.45 2.85 1.45 2.95 -0.10 2.65 -0.95 -0.15 -1.25 0 -1.25 0.70 0 0.55 -0.25 1.30 -0.50 1.70 -0.35 0.55 -0.50 0.25 -0.50 -1.10z"/>
  <path d="M183.60 224.50 c0 -0.95 0.10 -1.35 0.25 -0.85 0.10 0.45 0.10 1.25 0 1.75 -0.15 0.45 -0.25 0.05 -0.25 -0.90z"/>
 </g>
 <g fill="#9a6107">
  <path d="M250.50 299.40 l0 -2.15 13.75 0 13.75 0 0 2.15 0 2.10 -13.75 0 -13.75 0 0 -2.10z"/>
  <path d="M231.70 271.35 c-0.10 -0.35 -0.15 -2.90 -0.10 -5.65 l0.15 -4.95 2.45 0 c1.55 0 2.55 0.25 2.70 0.65 0.10 0.30 -0.20 0.60 -0.65 0.60 -0.75 0 -0.85 0.55 -0.65 5 l0.20 5 -1.90 0 c-1.15 0 -2.05 -0.25 -2.20 -0.65z"/>
 </g>
 <g fill="#993d01">
  <path d="M251 308.20 c-4.35 -0.60 -13.50 -2.95 -17.70 -4.50 -14.70 -5.65 -26.70 -14.90 -36.10 -28.05 -11.40 -15.85 -16.20 -37.45 -12.80 -57.05 0.60 -3.40 1.25 -6.75 1.40 -7.50 l0.35 -1.35 -1.30 1.35 c-2.70 2.90 -6.45 4.80 -10.40 5.30 -2.05 0.25 -4.10 0.60 -4.55 0.85 -0.65 0.25 -0.90 0.15 -0.90 -0.45 0 -0.45 -0.30 -0.80 -0.65 -0.80 -1.40 0 -5.55 -2.50 -7.70 -4.60 -2.15 -2.10 -3.65 -4.45 -3.65 -5.65 0 -0.35 -0.30 -0.90 -0.70 -1.20 -0.55 -0.45 -0.85 -0.25 -1.55 0.80 -1.55 2.35 -4.35 4.65 -7.75 6.30 -3.20 1.55 -3.40 1.55 -10.50 1.55 l-7.25 0.05 -3.95 -1.90 c-2.15 -1 -4 -1.85 -4.10 -1.85 -0.10 0 -0.70 0.50 -1.35 1.15 -1.45 1.35 -2.55 2.10 -5.10 3.30 -4.45 2.10 -5.50 2.30 -11 2.25 -5.75 -0.05 -8.05 -0.70 -11.90 -3.35 -1.35 -0.95 -1.45 -0.95 -2.10 -0.05 -0.40 0.55 -0.75 1.20 -0.75 1.50 0 1.30 -4.25 5.30 -6.80 6.45 -3.30 1.50 -8.50 1.70 -11.45 0.45 -1.85 -0.75 -1.95 -0.75 -2.95 0.40 -1.70 1.90 -6.80 6.10 -10.05 8.25 -4.20 2.75 -9.55 5.15 -11.55 5.15 -0.60 0 -1.25 0.20 -1.40 0.45 -0.35 0.50 -3.15 1 -8.05 1.40 -4.60 0.35 -10.60 -1 -15.10 -3.35 -2.30 -1.15 -5.65 -4.60 -5.65 -5.70 0 -0.40 -0.20 -0.85 -0.45 -1 -0.35 -0.25 -1.20 -3.80 -1.75 -7.55 -0.20 -1.60 -2.65 -10.35 -3.30 -12 -0.25 -0.55 -0.55 -1.55 -0.75 -2.25 -0.60 -2.45 -2.35 -8.75 -2.75 -10.25 -0.25 -0.80 -0.65 -2.30 -0.90 -3.25 -0.80 -2.90 -1.20 -3.65 -3.20 -5.95 -1.05 -1.20 -1.90 -2.60 -1.90 -3.10 0 -0.50 -0.20 -1.05 -0.50 -1.20 -0.60 -0.40 -0.65 -5.95 -0.05 -7.15 0.25 -0.45 0.75 -1.50 1.10 -2.35 2.35 -5.20 6.10 -9.15 11.40 -11.90 4.85 -2.50 5.25 -2.70 6.55 -3.25 0.70 -0.25 2.25 -0.95 3.50 -1.50 1.25 -0.50 3.10 -1.20 4.15 -1.55 1 -0.30 2.60 -0.80 3.50 -1.05 0.90 -0.30 3.65 -0.50 6.10 -0.50 4.65 0 9.10 1.15 11.85 3.05 0.70 0.55 1.55 0.95 1.80 0.95 0.30 0 0.60 0.15 0.70 0.40 0.10 0.20 1.25 1.35 2.55 2.60 l2.35 2.20 1.50 -1.80 c2.40 -2.90 6.45 -4.60 11.05 -4.60 4 -0.05 5 0.30 8.80 2.80 l2.10 1.40 0.85 -1.80 c0.90 -1.90 3.80 -4.30 6.65 -5.50 2.70 -1.10 8.05 -0.90 10.55 0.45 2.90 1.50 5.05 3.75 6.45 6.65 0.65 1.35 1.30 2.75 1.50 3.15 0.20 0.40 1.25 0.95 2.40 1.30 2.75 0.85 5.15 1.90 5.15 2.35 0 1 1.55 0.20 2.80 -1.45 4.15 -5.55 11.80 -9.15 19.30 -9.15 4.95 0 7.70 0.65 12.30 2.95 1.20 0.55 2.25 1.05 2.30 1.05 0.05 0 0.10 -2.30 0.15 -5.10 0.05 -5.65 0.60 -7.40 3.10 -10.60 3.55 -4.45 9.05 -6.30 14 -4.75 5.30 1.70 8.35 4.85 10.25 10.60 0.30 0.90 1.30 1.20 1.30 0.30 0 -1.10 5.25 -6 7.80 -7.25 5.45 -2.65 13.50 -1.30 17.25 2.90 1.10 1.20 1.20 1.20 3.80 -1.10 5.90 -5.20 13.70 -5.30 20.40 -0.30 2.25 1.70 2.30 1.80 3.90 4.50 l1.15 2 4.25 0 c4.75 0.05 7.05 0.90 9.95 3.60 l1.75 1.70 5.75 -0.55 c22.15 -2 45.10 6.80 61.15 23.55 10.10 10.50 17.45 25 20.15 39.75 1.40 7.60 1.30 21.25 -0.20 28.35 -3.30 15.40 -9.65 27.45 -20.40 38.50 -11.30 11.60 -24.45 18.75 -40.95 22.20 -3.45 0.75 -19.75 1.35 -23.25 0.90z m24 -7.70 c0 -0.25 0.35 -0.50 0.75 -0.50 0.40 0 0.75 -0.35 0.75 -0.75 0 -0.55 0.55 -0.75 2 -0.75 1.45 0 2 -0.20 2 -0.75 0 -0.40 0.35 -0.75 0.80 -0.75 0.50 0 0.70 -0.30 0.50 -0.75 -0.15 -0.45 0 -0.75 0.45 -0.75 0.55 0 0.75 -0.65 0.75 -2.75 0 -2.35 0.20 -3 1.25 -3.95 1.15 -1.10 1.25 -1.50 1.25 -5.75 0 -3.70 0.15 -4.55 0.75 -4.55 0.40 0 0.75 -0.35 0.75 -0.75 0 -0.40 0.25 -0.75 0.50 -0.75 0.30 0 0.50 -2.60 0.50 -6.75 0 -4.15 -0.20 -6.75 -0.50 -6.75 -0.25 0 -0.50 -0.35 -0.50 -0.80 0 -0.50 -0.30 -0.70 -0.75 -0.50 -0.60 0.20 -0.75 -0.30 -0.75 -3.20 0 -2 -0.20 -3.50 -0.50 -3.50 -0.25 0 -0.50 -0.30 -0.50 -0.65 0 -0.30 -0.70 -0.90 -1.50 -1.25 -0.85 -0.40 -1.40 -0.90 -1.20 -1.15 0.15 -0.25 -0.10 -0.45 -0.50 -0.45 -0.45 0 -0.80 -0.35 -0.80 -0.75 0 -0.55 -0.55 -0.75 -1.75 -0.75 -1.10 0 -1.90 -0.30 -2.05 -0.75 -0.20 -0.40 -0.60 -0.75 -0.95 -0.75 -0.35 0 -0.75 -0.35 -0.95 -0.75 -0.20 -0.55 -1.05 -0.75 -3.30 -0.75 -2.35 0 -3 -0.15 -3 -0.75 0 -0.40 -0.35 -0.75 -0.75 -0.75 -0.40 0 -0.75 -0.20 -0.75 -0.50 0 -0.25 -0.65 -0.50 -1.50 -0.50 -0.80 0 -1.50 0.25 -1.50 0.55 0 1.10 -1.50 1.95 -3.45 1.95 l-2.05 0 0 -9.25 c0 -9.20 0 -9.30 -1.25 -10.50 -0.95 -1 -1.70 -1.25 -3.75 -1.25 -2.10 0 -2.80 0.25 -3.90 1.35 l-1.35 1.35 -0.25 18.55 -0.25 18.50 -1.85 0.15 c-1.05 0.10 -1.90 -0.05 -1.90 -0.30 0 -0.25 -1 -1.55 -2.25 -2.80 l-2.20 -2.35 -3.65 0.15 -3.65 0.15 -0.15 3.80 c-0.15 3.65 -0.10 3.80 1.40 5.10 0.80 0.75 1.70 1.35 2 1.35 0.25 0 0.50 0.35 0.50 0.75 0 0.40 0.35 0.75 0.75 0.75 0.40 0 0.75 0.25 0.75 0.55 0 0.70 1.25 1.95 1.95 1.95 0.35 0 0.55 1.35 0.55 3.50 0 2.15 0.20 3.50 0.55 3.50 1.25 0 1.95 1.50 1.95 4.35 0 2.65 0.15 3.05 1.50 4.15 1.05 0.90 1.45 1.70 1.50 2.90 0 1.05 0.25 1.60 0.75 1.60 0.45 0 0.60 0.30 0.45 0.75 -0.20 0.45 0 0.75 0.50 0.75 0.45 0 0.80 0.35 0.80 0.75 0 0.55 0.55 0.75 2 0.75 1.45 0 2 0.20 2 0.75 0 0.40 0.35 0.75 0.75 0.75 0.40 0 0.75 0.25 0.75 0.50 0 0.30 3.90 0.50 10.75 0.50 6.85 0 10.75 -0.20 10.75 -0.50z m-232.35 -74.80 c4.20 -1 8.85 -3.45 13.30 -7 6.10 -4.90 8.05 -8.60 8.05 -15.25 0 -8.05 -4.95 -14.35 -13.45 -17.20 -1.40 -0.45 -2.65 -1.05 -2.80 -1.30 -0.20 -0.25 0.25 -1.20 0.90 -2.05 4.80 -6.45 2.15 -15.45 -5.75 -19.35 -5.50 -2.75 -11.20 -1.90 -21.50 3.20 -6.90 3.45 -7.85 4.20 -10.25 8.40 -1.55 2.65 -1.45 3.60 0.60 4.75 1.35 0.85 1.85 1.60 2.45 3.70 7.85 27.65 9.80 34.70 9.80 35.85 0 2.40 0.95 4.30 2.65 5.30 3.70 2.20 9.55 2.55 16 0.95z m256.70 -3.65 c4.75 -2.15 4.05 -6.30 -1.50 -9.15 -1.45 -0.70 -1.90 -1.20 -1.75 -2.05 0.15 -1.05 0.35 -1.10 4.25 -0.90 6.50 0.25 10.40 -1.60 12.25 -5.85 2 -4.45 0.30 -9.80 -4.65 -14.65 -6.25 -6.20 -14.90 -6.65 -21.35 -1.20 -2.20 1.85 -5.40 6.65 -7 10.45 -1.80 4.25 -1.85 10.40 -0.20 14.05 1.95 4.25 5.30 7.20 10.30 9.05 3.75 1.40 6.90 1.50 9.65 0.25z m-33.10 -8.40 c3.70 -1.95 5.75 -5.25 5.75 -9.25 -0.05 -3.10 -1.55 -6 -5 -9.60 -3.35 -3.50 -3.75 -4.95 -1.75 -6.80 l1.25 -1.15 2.20 1.20 2.25 1.15 1.30 -1.20 c4.10 -3.85 2.05 -10.35 -4.25 -13.20 -3.55 -1.60 -9.85 -1.45 -13.75 0.35 -6.40 3 -9.70 8.50 -8.25 13.85 0.40 1.55 1.40 3 3.55 5.10 1.60 1.65 2.95 3.25 2.95 3.55 0 1.25 -1.70 2.35 -3.60 2.35 -3.95 0 -6.55 4.75 -4.65 8.35 1 1.80 4.50 4.65 7.30 5.90 2.65 1.20 12.05 0.80 14.70 -0.60z m-186.80 -3.40 c1.40 -1.60 1.55 -2.10 1.55 -5.15 0 -3.20 -2.20 -15.55 -3.75 -20.95 -1.20 -4.15 -4.45 -5.50 -7.10 -2.85 l-1.25 1.30 0.35 6.55 c0.55 10.90 1.60 19.20 2.45 20.45 1.05 1.50 2.70 2.35 4.60 2.40 1.20 0 2 -0.45 3.15 -1.75z m127.10 -4.55 c2.55 -2.40 4.60 -7.20 9.90 -23.45 8.20 -24.85 8.45 -26 6.60 -29.05 -1.25 -2.05 -4.15 -3.40 -6.40 -2.95 -2.95 0.55 -5.40 3.30 -6.85 7.65 -1.05 3.10 -4.80 18.35 -4.80 19.45 0 0.45 -2.60 -0.35 -3.25 -1.05 -0.90 -0.85 -1.15 -2.60 -1.75 -10.05 -0.65 -9.05 -1.25 -11.60 -3.25 -13.60 -2.80 -2.80 -6.95 -2.10 -9.20 1.55 -0.55 0.85 -2.80 6.45 -5.05 12.50 -5.95 15.95 -5.40 14.80 -7 14.80 -1.35 0 -1.45 -0.10 -1.95 -3.60 -2.05 -13.25 -5.05 -25.30 -6.95 -27.85 -2.05 -2.75 -5.40 -2.35 -6.70 0.85 -1.10 2.85 2.35 33.75 5.20 46.80 0.95 4.20 1.35 5.25 2.75 6.60 3.35 3.35 8.30 2.55 11.45 -1.85 0.85 -1.20 3.40 -5.85 5.65 -10.35 3.60 -7.15 4.20 -8.15 5.20 -8 1 0.15 1.20 0.80 2.50 8.65 1.65 9.70 2.55 12.05 5.20 13.65 2.75 1.65 6.60 1.30 8.70 -0.70z m26.10 1.25 c1.75 -0.95 2.80 -2.55 3.85 -5.95 1.30 -4.10 4.15 -20.80 3.75 -22.05 -0.45 -1.40 -2.70 -2.95 -4.30 -2.95 -0.90 0 -1.75 0.45 -2.40 1.30 -1.60 2.05 -8.05 22.25 -8.05 25.30 0 1.05 0.55 2.05 1.70 3.20 1.80 1.80 3.50 2.15 5.45 1.15z m-122.25 -2 c5.05 -2.45 6.35 -8.30 2.30 -10.50 -1 -0.50 -1.85 -0.50 -5 0.25 -5.05 1.20 -5.65 0.80 -7.15 -4.80 -0.60 -2.25 -1.10 -4.35 -1.10 -4.65 0 -0.25 1.40 -0.75 3.15 -1.05 1.75 -0.30 3.75 -0.80 4.45 -1.10 1.75 -0.70 2.95 -2.70 2.95 -4.90 0 -1.50 -0.35 -2.20 -2 -3.75 -2 -1.90 -2.10 -1.95 -4.90 -1.65 -2.60 0.30 -3.05 0.20 -4.40 -0.95 -1.20 -1 -1.70 -2 -2.20 -4.35 -0.90 -4.30 -2.30 -6.20 -4.60 -6.40 -1.50 -0.15 -1.95 0.10 -2.85 1.35 -0.90 1.25 -1.05 2.20 -1.05 6.15 l0 4.70 -2.50 2.55 c-1.85 1.90 -2.50 2.95 -2.50 4 0 1.70 1.50 3.50 3.30 3.95 1.60 0.40 2.05 1.35 3 6.25 1.40 7.45 3.35 11.20 7.35 14.05 3.55 2.55 9.50 2.90 13.75 0.85z m33.20 -3.05 c2.20 -1.20 4.40 -3.90 4.40 -5.40 0 -1.70 -1.90 -3.40 -4.50 -4 -2.45 -0.60 -2.55 -0.70 -2.40 -2.10 0.15 -1.35 0.50 -1.65 2.80 -2.50 3.55 -1.30 6.85 -4.50 7.60 -7.30 1.55 -5.90 -3.20 -12.20 -11.10 -14.65 -9.90 -3.10 -18.05 2.10 -20.65 13.15 -2.70 11.45 2 21 11.70 23.75 3.50 1 9.50 0.50 12.15 -0.95z m-72.30 -29 c2.95 -3.35 3.10 -4.95 0.65 -7.25 -1.70 -1.55 -3.50 -1.85 -5.60 -1 -1.70 0.75 -3.35 2.95 -3.35 4.55 0 3.85 5.90 6.45 8.30 3.70z m169.15 -4.95 c2.15 -2.15 2.15 -4.85 0 -6.65 -2.05 -1.75 -4.15 -1.70 -6 0.15 -1.95 2 -2.05 4.85 -0.15 6.75 1.90 1.85 4.15 1.75 6.15 -0.25z"/>
  <path d="M35.25 214 c-0.65 -1.05 -3.80 -11.30 -4.10 -13.35 l-0.30 -2.15 2.45 -1.10 c3.05 -1.35 7 -2.40 9 -2.40 2.50 0 6.20 1.50 7.95 3.30 3.15 3.10 2.90 6.45 -0.65 10 -4.10 4.05 -13.15 7.65 -14.35 5.70z"/>
  <path d="M24.85 182.45 c-1.45 -3.70 -1.80 -5.15 -1.40 -5.65 1 -1.20 6.75 -3.80 9.70 -4.40 2.65 -0.50 3.05 -0.45 4.25 0.45 1.65 1.20 2 3.90 0.90 6.10 -0.85 1.60 -5 4.95 -8.90 7.20 -1.30 0.75 -2.40 1.35 -2.50 1.35 -0.10 0 -1 -2.30 -2.05 -5.05z"/>
 </g>
 <g fill="#823507">
  <path d="M247.50 251.15 c0 -14.60 -0.15 -22.10 -0.50 -22.45 -0.40 -0.40 -0.10 -1.05 0.95 -2.15 1.20 -1.25 1.75 -1.50 2.75 -1.25 1.75 0.45 1.80 2.20 0.05 2.20 l-1.25 0 -0.10 22.60 c-0.15 21.10 -0.20 22.65 -1 22.80 -0.85 0.15 -0.90 -1.15 -0.90 -21.75z"/>
  <path d="M296.25 212.20 c-3.20 -1.70 -5.80 -3.30 -5.65 -3.45 0.10 -0.10 2.30 0.10 4.90 0.50 2.60 0.40 6.10 0.75 7.75 0.75 2.05 0 2.75 0.15 2.25 0.50 -0.40 0.25 -2.10 0.45 -3.85 0.45 -3.60 0 -4.45 0.30 -3.60 1.35 0.75 0.90 0.10 0.85 -1.80 -0.10z"/>
  <path d="M255 201.20 c-2.50 -0.85 -4.55 -1.20 -6.15 -1.10 -2.60 0.15 -3.20 -0.45 -0.85 -0.90 0.85 -0.20 1.50 -0.45 1.50 -0.65 0.05 -0.15 0.45 -0.80 1 -1.45 l0.95 -1.15 3.40 2.50 c1.85 1.40 3.85 2.85 4.40 3.25 1.50 1.10 0.15 0.95 -4.25 -0.50z"/>
  <path d="M297.65 198.60 c-4.50 -0.85 -4.95 -1.40 -2.85 -3.05 2.15 -1.70 4.80 -1.40 7.20 0.75 3.60 3.25 2.80 3.70 -4.35 2.30z"/>
  <path d="M143.50 192.50 c-0.70 -0.20 -2.50 -0.45 -4 -0.50 -1.50 -0.05 -3.65 -0.35 -4.75 -0.70 l-2 -0.65 2 -0.35 c1.10 -0.25 3.25 -0.70 4.80 -1.10 3.40 -0.85 3.60 -0.85 3.15 -0.15 -0.45 0.70 0.80 2.95 1.65 2.95 0.35 0 0.65 0.25 0.65 0.50 0 0.30 -0.05 0.50 -0.10 0.45 -0.10 -0.05 -0.70 -0.25 -1.40 -0.45z"/>
  <path d="M261.75 189.75 c-1.90 -1.75 -3.35 -3.30 -3.25 -3.35 0.80 -0.60 3.20 -1.40 4.15 -1.40 0.65 0 2.35 0.80 3.85 1.75 1.50 0.95 2.40 1.75 1.95 1.75 -1.25 0 -3.10 2.30 -2.80 3.50 0.15 0.55 0.10 1 -0.05 1 -0.20 -0.05 -1.90 -1.50 -3.85 -3.25z"/>
  <path d="M190.55 189.25 c-0.65 -0.95 -1.05 -2.05 -0.90 -2.50 0.20 -0.40 -0.05 -0.90 -0.45 -1.15 -0.70 -0.40 -0.65 -0.65 0.15 -2.50 0.50 -1.15 1.05 -2.10 1.20 -2.10 0.20 0 0.60 1.85 0.95 4.15 0.30 2.25 0.70 4.50 0.85 5 0.35 1.40 -0.50 0.95 -1.80 -0.90z"/>
  <path d="M174.10 182.15 c-0.50 -3.55 -0.35 -4.50 0.45 -3 0.70 1.15 1.75 1.05 2.65 -0.25 0.45 -0.60 0.80 -0.85 0.80 -0.55 0 0.75 -1.85 5 -2.70 6.20 -0.60 0.90 -0.75 0.70 -1.20 -2.40z"/>
  <path d="M201.55 180.75 c-0.65 -4.45 -0.70 -7.25 -0.15 -7.25 0.25 0 0.90 0.45 1.50 1 0.60 0.55 1.30 1 1.60 1 0.25 0 0.50 0.35 0.50 0.80 0 1.30 -2.10 8.20 -2.50 8.20 -0.20 0 -0.65 -1.70 -0.95 -3.75z"/>
  <path d="M131.30 178.65 c1 -3.70 5.45 -5.25 8.65 -3.05 0.95 0.60 1.80 1.40 1.90 1.70 0.10 0.30 -1.45 0.75 -3.70 1.15 -2.15 0.30 -4.60 0.75 -5.50 0.90 -1.40 0.20 -1.55 0.10 -1.35 -0.70z"/>
  <path d="M107.30 173.75 c-0.70 -0.50 -2.25 -0.75 -5.10 -0.75 -2.45 0 -4.30 -0.20 -4.50 -0.55 -0.45 -0.75 -1.80 -7.50 -1.55 -7.75 0.10 -0.15 0.60 -0.10 1.05 0.10 0.50 0.20 0.80 0.90 0.80 1.95 0 1.25 0.40 2 1.80 3.20 1 0.90 2.15 1.50 2.60 1.35 4.20 -1.10 5.15 -0.80 5.80 1.85 0.35 1.55 0.35 1.55 -0.90 0.60z"/>
 </g>
 <g fill="#080502">
  <path d="M263.70 302.60 l-11.60 -0.10 -0.30 -1.25 c-0.30 -1.10 -0.60 -1.25 -2.75 -1.25 -2.30 0 -2.45 -0.10 -2.75 -1.50 -0.20 -1.10 -0.55 -1.50 -1.15 -1.40 -0.75 0.15 -0.95 -0.30 -1.05 -2.45 -0.15 -2.40 -0.25 -2.60 -1.50 -2.75 -1.30 -0.15 -1.35 -0.25 -1.50 -4 -0.15 -3.75 -0.20 -3.90 -1.35 -3.90 -1.20 0 -1.25 -0.10 -1.25 -4 0 -3.95 0 -4 -1.25 -4 -1.05 0 -1.25 -0.25 -1.25 -1.45 0 -1 0.30 -1.50 1 -1.70 1.10 -0.30 1.80 0.45 1.60 1.75 -0.10 0.60 0.25 0.90 1.25 1 1.30 0.15 1.40 0.30 1.45 2.65 0.05 4.80 0.15 5.15 1.35 5.35 1 0.15 1.10 0.45 1.35 4.15 0.20 3.10 0.40 4 1 4 0.50 0 0.70 -0.40 0.60 -1.25 -0.15 -0.95 -0.05 -1.10 0.40 -0.70 0.30 0.30 0.60 2.05 0.65 3.90 l0.05 3.30 2.65 0 c2.60 0 2.65 0 2.65 1.50 l0 1.50 12.25 0 12.25 0 0 1.20 c0 0.65 -0.30 1.25 -0.60 1.35 -0.35 0.10 -5.85 0.15 -12.20 0.05z"/>
  <path d="M276.35 298.90 c-0.45 -1.65 -0.05 -1.90 2.95 -1.90 2.65 0 2.70 0 2.70 1.50 0 1.50 -0.05 1.50 -2.70 1.50 -2.35 0 -2.70 -0.15 -2.95 -1.10z"/>
  <path d="M282 296.55 c-0.30 -0.65 -1.10 -1.05 -1.90 -1.10 l-1.35 -0.05 1.50 -0.35 c1.40 -0.30 1.50 -0.45 1.65 -2.90 0.15 -2.25 0.30 -2.60 1.25 -2.75 1.05 -0.15 1.10 -0.40 1.25 -5.50 0.15 -5.35 0.15 -5.40 1.35 -5.40 l1.25 0 0 -8.25 0 -8.25 1.25 0 1.25 0 0 8.25 0 8.25 -1.25 0.30 c-1.25 0.30 -1.25 0.40 -1.25 5.50 0 5.20 0 5.20 -1.25 5.20 -1.15 0 -1.20 0.15 -1.35 3.85 -0.10 3.20 -0.30 3.90 -1 4.05 -0.45 0.10 -1.10 -0.30 -1.40 -0.85z"/>
  <path d="M233 272.05 c0 -0.65 -0.40 -1.05 -1.10 -1.15 -1.10 -0.15 -1.15 -0.35 -1.15 -5.65 l0 -5.50 5.40 -0.15 5.35 -0.15 0 1.25 c0 0.90 0.30 1.25 1.10 1.40 0.60 0.10 1.40 0.70 1.75 1.40 0.35 0.70 0.90 1.25 1.25 1.25 0.50 0 0.70 -3.90 0.90 -18.60 0.15 -10.20 0.40 -18.75 0.60 -18.90 0.20 -0.20 0.70 -0.25 1.15 -0.10 0.65 0.30 0.75 3 0.75 22.60 0 12.25 0 22.40 0 22.65 0 0.20 -0.50 0.35 -1.10 0.35 -1.05 0 -1.15 -0.20 -1 -2.35 0.20 -2.25 0.15 -2.35 -1.25 -2.50 -1.10 -0.10 -1.45 -0.45 -1.55 -1.50 -0.15 -1.10 -0.45 -1.40 -1.35 -1.40 -0.90 0 -1.20 -0.30 -1.35 -1.35 -0.15 -1.40 -0.15 -1.40 -4.15 -1.40 l-4 0 0 4 c0 3.95 0 4 1.25 4 1 0 1.30 0.30 1.40 1.40 0.15 1.20 0 1.35 -1.35 1.35 -1.20 0 -1.55 -0.20 -1.55 -0.95z"/>
  <path d="M276.50 257 l0 -8 -2.75 0 -2.75 0 0 6.50 0 6.50 -1.35 0 -1.40 0 0.15 -8 c0.15 -8.95 0.45 -8.35 -3.50 -7.70 -1.40 0.25 -1.90 0.60 -2 1.40 -0.10 0.75 -0.55 1.10 -1.50 1.20 l-1.40 0.15 0 5.25 0 5.20 -1.25 0 -1.25 0 0 -16 0 -16 -3.10 0 c-4.10 0 -5.40 -0.40 -5.40 -1.55 0 -0.85 0.45 -0.95 4.50 -0.95 4.15 0 4.50 0.05 4.50 1 0 0.65 0.35 1 1 1 0.95 0 1 0.35 1 9.50 l0 9.50 1.20 0 c0.95 0 1.25 -0.30 1.40 -1.35 0.10 -0.80 0.30 -1.35 0.55 -1.25 0.20 0.05 1.45 0.10 2.80 0.10 2.20 0 2.50 0.15 2.65 1.15 0.15 1 0.50 1.10 3.90 1.35 3.35 0.20 3.75 0.35 3.90 1.30 0.15 1.10 1.75 1.70 4.40 1.70 0.95 0 1.20 0.25 1.20 1.25 0 0.95 0.25 1.25 0.85 1.15 0.55 -0.10 1.10 0.40 1.55 1.25 0.35 0.75 1.05 1.35 1.65 1.35 0.85 0 0.95 0.35 0.95 3.95 0 3.15 -0.15 4 -0.80 4.25 -1.40 0.55 -1.70 -0.20 -1.70 -4.25 l0 -3.95 -1.55 0 c-1.30 0 -1.50 -0.15 -1.30 -0.95 0.20 -0.90 -0.75 -1.50 -2.25 -1.55 -0.25 0 -0.40 3.05 -0.40 6.75 l0 6.75 -1.25 0 -1.25 0 0 -8z"/>
 </g>
</svg>