<?xml version="1.0" encoding="UTF-8"?>
<svg id="Camada_2" data-name="Camada 2" xmlns="http://www.w3.org/2000/svg" viewBox="0 0 113 109">
  <defs>
    <style>
      .cls-1 {
        fill: #fbc00d;
      }

      .cls-2 {
        fill: #06171e;
      }

      .cls-3 {
        fill: #dba202;
      }

      .cls-4 {
        fill: #eebd0c;
      }

      .cls-5 {
        fill: #f8c00a;
      }

      .cls-6 {
        fill: #06161e;
      }

      .cls-7 {
        fill: #07171e;
      }

      .cls-8 {
        fill: #edbc0c;
      }

      .cls-9 {
        fill: #dda302;
      }

      .cls-10 {
        fill: #fcc00d;
      }

      .cls-11 {
        fill: #07161e;
      }

      .cls-12 {
        fill: #f4be0b;
      }

      .cls-13 {
        fill: #f8c10b;
      }

      .cls-14 {
        fill: #08171e;
      }
    </style>
  </defs>
  <g id="Camada_1-2" data-name="Camada 1">
    <g>
      <path class="cls-10" d="M50.14,0l1.11.4c20.45,20.45,40.9,40.9,61.35,61.35l.4,1.11v40.41l-.47.24-6.23-6.02.2,10.35-.49.66c-.12.07-.46.3-.5.25v-12.36s-.24-.75-.24-.75C76.66,66.93,47.87,38.39,19.21,9.73,15.52,7.14,12.25,3.72,9.73,0h40.41Z"/>
      <path class="cls-9" d="M19.21,9.73H.25S9.48,0,9.48,0h.25c3.15,3.24,6.28,6.53,9.48,9.73Z"/>
      <path class="cls-3" d="M113,103.26v.25c-.56.08-1.02.57-1.47.9-1.68,1.25-3.78,3.07-5.51,4.09l-.25-12.22,7.23,6.98Z"/>
      <path class="cls-2" d="M41.91,11.97l4.62-1.67,1.63,1.8c-1.47,1.98-2.89,4.4-4.51,6.23-.19.22-.52.68-.84.61-.42-.45-1.57-1.17-1.38-1.82l2.72-3.66c-.22-.19-4.39,1.93-5.09,1.73-.19-.05-.44-.37-.4-.61l1.75-4.87-3.87,2.96-1.61-1.82c2.04-1.4,4.18-3.48,6.25-4.74.24-.14.54-.43.82-.36.39.37,1.64,1.32,1.61,1.79-.04.64-1.9,4.22-1.7,4.41Z"/>
      <circle class="cls-6" cx="72.71" cy="42.57" r="4.79"/>
      <path class="cls-6" d="M103.55,75.36c-.25.87-.5,1.74-.76,2.61-.05.18.11.85-.39.6-.18-.09-1.79-1.73-1.8-1.86.13-.61,1.08-2.68.8-3.13s-.45-.24-.75,0c-.38.3-1.32,1.57-1.72,1.49l-1.65-1.61,6.14-6.1c.29-.06.42.2.6.36.82.72,2.85,2.66,3.12,3.61.68,2.35-1.33,4.14-3.59,4.03Z"/>
      <path class="cls-6" d="M85.69,49.39l1.61,1.84c-.78,1.16-4.08,3.4-3.98,4.75.08,1.07,1.07,1.48,2,1.01.82-.41,3.32-3.72,3.89-3.85l1.83,1.83c-1.33,1.13-3.68,4.37-5.36,4.63s-3.06-.24-4.06-1.65c-2.7-3.81,1.99-6.01,4.07-8.56Z"/>
      <path class="cls-11" d="M58.8,24c2.29-.48,5.29,2.71,3.92,4.92-.14.22-.4.57-.71.5-.1-.02-1.48-1.36-1.52-1.47-.09-.22.1-.45.09-.64-.06-1.07-1.49-.99-1.46-.49.02.28,1.21,2.03,1.38,2.61.32,1.12.18,2.27-.75,3.01-2.79,2.2-6.9-2.01-5.23-4.73.14-.22.4-.57.71-.5.1.02,1.48,1.36,1.54,1.49.2.42-.51,1.45.76,1.98l.73-.48c.3-.68-2.05-2.68-1.25-4.74.25-.65,1.11-1.31,1.79-1.46Z"/>
      <path class="cls-2" d="M98.66,62.41l1.81,1.81-3.81,8.61-1.84-1.9.61-1.34c-.55-.35-1.56-1.82-2.06-1.97-.54-.16-.87.38-1.24.44-.32.05-1.9-1.51-1.83-1.84l8.36-3.81Z"/>
      <path class="cls-2" d="M51.76,15.52l1.81,1.81-3.81,8.61-1.81-1.86.58-1.38c-.55-.35-1.56-1.82-2.05-1.97-.54-.16-.87.38-1.24.44-.32.05-1.9-1.51-1.83-1.84l8.36-3.81Z"/>
      <path class="cls-6" d="M66.98,30.68c1.65,1.91,4.96,3.64,3.34,6.58-1.38,2.5-4.69,1.8-6.08-.34l-1.75,1.74-1.61-1.84,6.1-6.14Z"/>
      <path class="cls-2" d="M79.98,43.91c.29-.06.42.2.6.36,1.71,1.5,4.02,3.4,2.84,5.84-1.28,2.64-4.42,2.12-5.99.04l-1.94,1.47-1.65-1.61,6.14-6.1Z"/>
      <polygon class="cls-14" points="92.17 55.87 94.04 57.74 89.56 62.26 91.54 64.48 89.93 66.1 86.07 62.01 92.17 55.87"/>
      <rect class="cls-7" x="49.96" y="23.08" width="8.84" height="2.49" transform="translate(-1.25 45.63) rotate(-45.06)"/>
      <circle class="cls-1" cx="72.72" cy="42.59" r="2.32"/>
      <path class="cls-13" d="M103.67,70.6c1.12.37,1.6,1.58.42,2.2-.55.14-1.26-.43-1.57-.87l1.14-1.34Z"/>
      <path class="cls-8" d="M97.28,65.6c-.16,1.59-1.08,2.94-2,.88.07-.32,1.88-.99,2-.88Z"/>
      <path class="cls-4" d="M50.64,18.46c.14.15-.89,2.19-1.12,2.25-2.42-1.29-.19-1.49,1.12-2.25Z"/>
      <path class="cls-12" d="M68.04,36.11c-.64.64-1.75.09-2.18-.59l1.36-1.59c.57.46,1.53,1.47.82,2.18Z"/>
      <path class="cls-5" d="M80.23,47.15c2.51,1.2.13,3.51-1.4,1.36l1.4-1.36Z"/>
    </g>
  </g>
</svg>