<?xml version="1.0" encoding="UTF-8"?>
<svg id="Camada_2" data-name="Camada 2" xmlns="http://www.w3.org/2000/svg" viewBox="0 0 100.13 100">
  <defs>
    <style>
      .cls-1 {
        fill: #19ace4;
      }

      .cls-2 {
        fill: #1d1d1b;
      }

      .cls-3 {
        fill: #17b7e5;
      }

      .cls-4 {
        fill: #fff;
      }

      .cls-5 {
        fill: #e53d65;
      }

      .cls-6 {
        fill: #db7487;
      }

      .cls-7 {
        fill: #faf9f8;
      }

      .cls-8 {
        fill: #ea6c82;
      }

      .cls-9 {
        fill: #444847;
      }

      .cls-10 {
        fill: #16b8eb;
      }

      .cls-11 {
        fill: #443531;
      }
    </style>
  </defs>
  <g id="Camada_1-2" data-name="Camada 1">
    <g>
      <path class="cls-7" d="M50.17,0l.5.23v18.31c2.86.07,5.79.04,8.78-.1.51.02.63.27.44.76l-.16.5-9.36.23c.08,12.6.08,25.22-.03,37.82-.01,1.12-.21,2.24-.43,3.34-.05,5.32-7.9,9.81-12.22,6.23-.48.49-.6.42-.5-.25-1.44-1.11-1.75-2.97-1.79-4.69-.14-5.93,5.04-9.97,10.78-8.93l.21-9.21c-.09-.24-1.74-.16-2.09-.14l-.37-.48c-.5-.39-.63-1.02-.38-1.88-18.07-2.53-27.38,19.91-14.34,32.06.74-.12,2.5,1.2,2.24,2,5.18,3.64,10.84,6,17.21,4.23l1,.26c.37-.32.53-.32.5,0l.5.23v18.92l-.5.3C25.06,101.36,1.82,80.11.21,55.22c-.66-10.28.1-18.87,4.85-28.19C12.33,12.72,28.29.37,44.68,0h5.49Z"/>
      <path class="cls-4" d="M55.4,0c11.45.3,22.69,6.37,30.64,14.41s13.72,18.96,14,30.23c-.2,3.4.27,7.11,0,10.47,0,12.29-6.8,24-15.82,32-9.18,8.14-21.68,13.49-34.05,12.64v-19.45l.62-.73c9.89-3.34,12.27-13.93,11.95-23.35l-.14-12.98c-.08-1.55.22-2.13.91-1.74,4.05,2.26,8.29,4.25,13.03,4.16l.81.47c-.19,0-.49-.04-.5-.17-.22-2.28-.24-7.13,0-9.38l.5-.3c-.79.37-2.98-.23-3.24-1.12-.43-.24-.61-.7-.55-1.37-1.81-.4-3.55-.96-5.18-1.87l-.73.07c-1.69-1.29-3.11-2.87-4.35-4.58l.09-.72-1.06-1.85c-.45-1.34-1.1-2.38-1.94-3.14-.84-.1-1-1.94-.5-2.49-.22-.25-.27-.25-.61-.27l-9.12.27V0h5.24Z"/>
      <path class="cls-2" d="M43.93,43.64c.13.64.25,1.28.33,1.93.22,1.69.55,4.74-.04,5.98-.03.07-.6.15-.88.19-7.92-1.66-13.78,8.88-7.14,14.14l1,1.2c.16.09.33.18.5.25,3.3,3.33,7.67,4.11,11.54,1.17l.68.08.6.64c.21,2.12.26,4.24.15,6.37l-.51.72c-1.11,1.64-4.13,2.15-6.12,2.41-4.32.55-9.09-.2-12.58-2.91-.8-.73-1.54-1.1-2.24-2-1.87-1.62-2.7-3.81-3.27-6.17-2.3-9.59,1.5-19.46,11.08-23.11,1.98-.75,5.02-1.76,6.91-.89Z"/>
      <path class="cls-8" d="M74.11,35.16c1.1.42,2.25.55,3.24,1.12v9.85c-5.1.28-10.06-1.68-14.21-4.49-.23,6.13.3,12.48,0,18.59-.43,9.04-3.63,17.15-12.98,20.06-.13.04-.36-.04-.5,0l-.2-.5c.31-.96.38-1.97.21-3.04l.48-.45.24-.64c4.84-3.15,8.89-8.31,9.47-14.18l.51-.51-.5-.17v-21.09l.5-.3h1c3.91,2.43,8.18,3.49,12.66,3.98-.18-2.22-.32-4.53-.34-6.78,0-.24.05-.48.12-.72s.17-.49.28-.73Z"/>
      <path class="cls-10" d="M60.39,21.7c.22.07.22.15,0,.25-.02.19-.08.49-.22.5-.77.06-6.58.12-6.9,0-.19-.07-.28-.3-.36-.5l.5.17v41.04l-.5.3c.12.07.23.16.31.26.39.48-1.74,4.48-2.81,4.11l-.6-.39c-.27-2.12-.23-4.24.1-6.35-.37-13.86.28-27.78,0-41.65l9.98-.25c.31.36.27,1.8.5,2.49Z"/>
      <path class="cls-1" d="M43.93,43.64c-11.92.51-19.49,9.76-17.95,21.57.35,2.7,1.55,6.45,3.24,8.61-5.13-3.55-7.28-10.56-6.48-16.58,1.35-10.21,11.07-18.08,21.34-15.85-.05.76-.15,1.48-.15,2.25Z"/>
      <path class="cls-5" d="M43.93,43.64c.64-.03,2.75-.23,2.96.41l-.22,10.06c-8.06-1.91-13.33,5.92-9.47,12.97-9.05-4.84-2.73-18.14,6.73-15.71,0-2.57,0-5.16,0-7.73Z"/>
      <path class="cls-5" d="M50.17,76.31c0,1.14.39,3.31-.5,3.99-7.1,1.95-12.92.35-18.2-4.49,5.81,3.07,12.8,3.56,18.7.5Z"/>
      <path class="cls-1" d="M50.42,67.83c.46.55.2,1.03-.5.75-3.62,3.17-9.65,3.19-12.22-1.25,5.38,2.35,10.6-.93,12.22-6.23,0,.04.25.29.26.6.06,2-.27,4.22.24,6.13Z"/>
      <path class="cls-9" d="M60.39,21.95l.58.14,2.41,4.6c1.65,2.25,2.73,3.53,4.99,5.24l5.35,2.55.38.69c.22,2.82.34,5.64.25,8.48-5.2.1-9.6-1.63-13.97-4.24v21.57c0,5.78-5.23,12.75-10.22,15.34.02-2.52.19-5.28-.25-7.73.18-.15.32-.54.5-.75.78-.89,2.49-3.22,2.49-4.36V21.95h7.48Z"/>
      <path class="cls-3" d="M68.37,31.92l5.73,1.5c.04.58-.04,1.17,0,1.74-2.26-.86-3.82-1.8-5.74-3.24Z"/>
      <path class="cls-6" d="M63.38,26.68c-.93-1.27-2.48-3.24-2.99-4.74-.03-.07.02-.17,0-.25.53-.03.89-.11,1.21.41.6.98,1.03,3.42,1.79,4.57Z"/>
      <rect class="cls-11" x="53.16" y="22.19" width=".25" height="34.41"/>
    </g>
  </g>
</svg>