<?xml version="1.0" encoding="UTF-8"?>
<svg id="Camada_2" data-name="Camada 2" xmlns="http://www.w3.org/2000/svg" viewBox="0 0 100.12 100.06">
  <defs>
    <style>
      .cls-1 {
        fill: #1d1d1b;
      }

      .cls-2 {
        fill: #fcfdfd;
      }
    </style>
  </defs>
  <g id="Camada_1-2" data-name="Camada 1">
    <g>
      <path class="cls-2" d="M55.2,100.06h-10.47C21.93,98.95,1.16,78.24.09,55.42c.21-3.4-.28-7.12,0-10.47-.02-4.41.84-8.3,2.43-12.4C9.21,15.33,25.39,1.69,44.08.25c6.37-.49,13.86-.4,19.99,1.4,16.29,4.77,29.7,18.05,34.4,34.39,1.81,6.28,1.89,13.98,1.36,20.5-1.48,18.22-15.27,34.57-32.09,41.08-4.14,1.6-8.08,2.45-12.54,2.43Z"/>
      <path class="cls-1" d="M78.39,79.36h-16.83l-15.46-22.45-1.5,1.25-18.2,21.2h-4.86l21.96-25.82L21.54,21.01h16.33c.05,0,.17-.2.37-.13l14.85,21.32,18.45-21.2h4.49c.1,0,.23-.5.62.12l-21.16,24.64,22.91,33.59Z"/>
      <path class="cls-2" d="M71.66,75.87h-7.61L28.27,24.75h7.61c12.1,16.92,23.95,34.02,35.79,51.12Z"/>
    </g>
  </g>
</svg>