<?xml version="1.0" encoding="UTF-8"?>
<svg id="Camada_2" data-name="Camada 2" xmlns="http://www.w3.org/2000/svg" viewBox="0 0 50 50">
  <g id="Camada_1-2" data-name="Camada 1">
    <g>
      <path fill="#fff" class="cls-3" d="M48.48,25.13c0,12.91-10.46,23.37-23.37,23.37S1.74,38.04,1.74,25.13,12.2,1.76,25.11,1.76s23.37,10.46,23.37,23.37ZM27.12,12.94l-.18-1.43c-.62-1.37-4.7-.73-6.03-.68-.7.52-1.06,1.21-1.01,2.1-1.26.17-5.28-.44-5.98.67l-.05,25.15.62.62,17.67.13c2.07-.66,1.29-3,1.42-4.67l2.88-.23c.17-.26.19-1.5.1-1.84-.05-.19-.44-.14-.49-.34-.32-1.31.09-2.22-2-2.07-.42-1.79.75-2.73.98-4.33-.14-1.22-.88-1.89-1.63-2.75.1-2.53.37-5.48.16-7.98-.31-3.65-3.86-1.99-6.48-2.35Z"/>
      <path fill="#fff" class="cls-3" d="M30.6,15.92c.33.03.24.36.26.61.09,1.41.22,5.25-.02,6.48-.13.67-.86.97-1.2,1.53-1.37,2.27,1.04,3.41.46,5.81-2.15-.33-1.66,1.49-2.49,2.74h-4.35c-.17.19-.44.31-.37.62.16.72,3.76.24,4.55.37l.57.72,2.83.04v1.99h-14.43V15.92h14.18ZM21.64,17.66c-.39-.39-1.82.95-1.74,1.49l-1.11-.74c-.96.68.33,2.03,1.12,1.62.28-.35,2.22-1.89,1.74-2.37ZM28.23,18.41c-1.45-.24-3.45.17-4.98,0-.51.39-.49.62,0,1h5.22c.14,0,.51-.54.37-.74-.26.07-.48-.23-.62-.25ZM21.64,22.64c-.99-.11-1.44.98-2.11,1.49l-.75-.74c-.98.36.6,1.8.96,1.72.34-.31,2.37-2,1.9-2.47ZM28.48,23.38c-1.15-.34-3.87.25-5.22,0-.51.39-.49.62,0,1h4.98c.1,0,.37-.32.62-.25.13-.18-.17-.68-.37-.74ZM21.64,27.36l-1.9,1.47-1.33-.47c-.24.51.84,1.75,1.25,1.64.86-.63,2.16-1.43,1.98-2.64ZM22.89,29.1h5.6c.07,0,.25-.29.37-.37-.12-.09-.3-.37-.37-.37h-5.6v.75ZM21.64,32.34l-2.11,1.43-1.12-.44c-.16.65.66,1.64,1.32,1.47.37-.29,2.38-1.99,1.91-2.46Z"/>
      <path fill="#fefefe" class="cls-2" d="M31.34,37.56c.47-.62.17-1.97.25-2.74l1,.14-.35,3.61-17.31.1c-.12-.05-.5-.45-.5-.49V14.3l.37-.37h17.41l.37.37v8.83h-1v-7.84l-.86-.39-15.04.05c-.11.14.01.37-.03.46-.13.33-.23.35-.27.84-.48,6.6.41,13.79,0,20.45-.09.31.19.45.26.59.05.1.17.17.25.25h15.42Z"/>
      <path fill="#fff" class="cls-3" d="M33.51,24.45c1.73,2.11-1.11,3.52-.43,5.9h-1.99c.76-2.21-2.51-4.34-.12-5.97.93-.64,1.6-.44,2.54.07Z"/>
      <path fill="#fcfcfc" class="cls-5" d="M35.07,31.09l.24,1.22c-.23-.03-.52.27-.61.27h-5.6l.37-1.49h5.6Z"/>
      <path fill="#fcfcfc" class="cls-5" d="M26.37,12.94h-5.47l.14-1.27c1.49-.12,5.64-1.16,5.33,1.27Z"/>
      <path fill="#a3a0a1" class="cls-4" d="M15.67,37.31c-.08-.14-.35-.29-.26-.59.41-6.66-.49-13.85,0-20.45.04-.49.14-.52.27-.84v21.89Z"/>
      <path fill="#f5f5f6" class="cls-1" d="M35.82,33.33c.06.34-.09.6-.42.7-.47.15-5.79.16-6.42.04-.43-.08-.7-.27-.62-.75h7.46Z"/>
    </g>
  </g>
</svg>