<?xml version="1.0" encoding="UTF-8"?>
<svg id="Camada_2" data-name="Camada 2" xmlns="http://www.w3.org/2000/svg" viewBox="0 0 50.06 50">
  <g id="Camada_1-2" data-name="Camada 1">
    <g>
      <path fill="#fff" d="M27.86,0c11.38.3,21.87,10.68,22.14,22.14-.13,1.85.18,3.91,0,5.72-.08,12.12-10.81,21.17-22.41,21.92-8.21.53-14.59-.93-20.54-6.99S-.34,30.52.22,22.32C.99,10.79,10.12.08,22.14,0h5.72Z"/>
      <path fill="#030404" d="M12.94,18.66v12.06c0,.25.87,1.12,1.12,1.12h22.51c-.15,1.67.71,2.94-1.39,3.21-7.67-.42-16.04.62-23.62.03-1.18-.09-1.73-.36-1.86-1.62.44-4.24-.57-9.58.02-13.68.25-1.76,1.89-.99,3.22-1.13Z"/>
      <path fill="#090a0b" d="M14.6,14.73l24.09-.06c1.08-.05,1.83.53,1.86,1.62-.34,4.3.43,9.22,0,13.45-.05.45-.2,1.18-.67,1.33l-25.71-.09-.37-.37v-15.43s.8-.44.8-.44Z"/>
      <rect fill="#faf9fa" x="14.68" y="15.67" width="24.88" height="14.43"/>
      <rect fill="#010101" x="15.42" y="16.42" width="23.38" height="12.94"/>
      <circle fill="#fcfcfc" cx="27.02" cy="22.97" r="5.34"/>
      <rect fill="#f6f6f6" x="17.66" y="22.88" width="2.74" height=".75"/>
      <path fill="#f5f5f5" d="M33.58,23.63c-.21-1.19,2.98-.84,2.98-.37-.74.74-2.05.23-2.98.37Z"/>
      <circle fill="#020203" cx="27.02" cy="22.97" r="4.6"/>
      <path fill="#fcfcfc" d="M27.32,19.71s.03.32.21.44c.41.26,1.1.31,1.28.92.08.28.21,1.37-.33,1.07-.4-.22-.27-1.21-1.12-1.24.06.5-.09,1.11-.01,1.58.06.35,1.56.15,1.52,1.77-.03,1.38-.66.98-1.26,1.51-.19.16-.22.59-.38.62-.78.15-.54-.33-.88-.61-.38-.32-1.01-.54-1.19-1.06-.34-1.02.56-1.01.69-.81.15.24.04,1.11.76,1.23-.05-.53.16-1.3-.12-1.75-.4-.65-1.84-.52-1.26-2.25.27-.79.74-.66,1.22-.98.21-.14.18-.86.87-.44Z"/>
      <path fill="#222323" d="M27.36,25.12l.37-1.74c.74.58.37,1.44-.37,1.74Z"/>
      <path fill="#0b0c0c" d="M26.62,22.64c-.96-.47-.96-1.13-.12-1.74l.12,1.74Z"/>
    </g>
  </g>
</svg>