<?xml version="1.0" encoding="UTF-8"?>
<svg id="Camada_2" data-name="Camada 2" xmlns="http://www.w3.org/2000/svg" viewBox="0 0 50 50.06">
  <g id="Camada_1-2" data-name="Camada 1">
    <path fill="#fff" class="cls-1" d="M50,22.64v5.47c-.44,11.36-10.83,21.6-22.14,21.89-1.85-.13-3.91.18-5.72,0C9.92,49.88.85,39.02.2,27.3-.26,19.03,1.28,12.89,7.35,6.9S19.73-.37,27.89.23c11.6.84,22.17,10.37,22.11,22.41ZM22.33,11.51c-4.25.34-8.43,2.89-10.6,6.57-7.11,12.08,6.11,25.7,18.44,18.93,1.06-.58,4.01-2.46,2.93-3.83-.94-1.18-3.03,1.33-4.08,1.93-5.2,2.94-11.98,1.2-15.2-3.79-6.27-9.72,4.3-21.44,14.7-16.45,1.08.52,3.21,2.76,4.13,2.5.54-.15.75-.8.68-1.33-.09-.65-1.68-1.83-2.27-2.23-2.5-1.68-5.73-2.55-8.74-2.31ZM36.32,24.13h-13.56c-.84.7-.38,2.24.75,2.24h12.81c-.67,1.2-2.91,2.05-1.93,3.67.36.23.83.39,1.26.28.29-.08,3.87-3.68,4.28-4.19.75-.92.75-1.07,0-2-.54-.67-3.97-4.09-4.54-4.19-.47-.08-1.17.46-1.28.89-.29,1.12,2.68,2.88,2.21,3.31Z"/>
  </g>
</svg>