<?xml version="1.0" encoding="UTF-8"?>
<svg id="Camada_2" data-name="Camada 2" xmlns="http://www.w3.org/2000/svg" viewBox="0 0 50 50">
  <g id="Camada_1-2" data-name="Camada 1">
    <g>
      <path fill="#fff" class="cls-1" d="M23.08,1.81c15.11-1.31,27.43,11.94,25.16,26.9-.19,1.22-1.4,4.37-1.38,5,.01.47,1.1,2.03,1.29,2.84,1.68,7.04-4.48,13.63-11.59,11.59-.76-.22-2.46-1.27-2.85-1.29-.49-.01-2.55.85-3.36,1.03C13.43,51.63-1.37,36.74,2.31,19.84,4.42,10.12,13.23,2.67,23.08,1.81ZM32.34,28.36c.8.11,1.41.08,2.24.37.73.26,1.73,1.12,2.22,1.25,1.26.32,3.45-.47,5.5.25,1.24.43,1.85,1.66,2.37-.12C49.8,12.41,28.67-2.16,13.35,8.75c-9.28,6.61-11.2,19.9-4.02,28.81.35-1.11.41-2.3.82-3.41,1.18-3.21,4.36-5.63,7.76-5.8,4.75-.22,9.66.17,14.43,0ZM33.33,31.59c-.73.08-1.39-.22-2.1-.26-3.53-.21-8.97-.27-12.46,0-5.17.4-6.67,5-6.05,9.55,5.1,4.26,12.31,5.54,18.62,3.39-2.92-4.09-1.66-9.5,1.99-12.68ZM45.28,39.11c0-3.4-2.76-6.16-6.16-6.16s-6.16,2.76-6.16,6.16,2.76,6.16,6.16,6.16,6.16-2.76,6.16-6.16Z"/>
      <path fill="#8d8d8d" class="cls-2" d="M32.34,28.36c-4.76.17-9.68-.22-14.43,0,.24-.42.95-.25,1.37-.25,4.21-.04,9.06-.31,13.06.25Z"/>
      <path fill="#fff" class="cls-1" d="M32.94,17.37c0,4.31-3.5,7.81-7.81,7.81s-7.81-3.5-7.81-7.81,3.5-7.81,7.81-7.81,7.81,3.5,7.81,7.81ZM24.31,12.74c-5.54.93-4.87,10.23,1.88,9.09,3.77-.64,4.75-6.3,1.51-8.36-.91-.58-2.32-.91-3.39-.73Z"/>
      <path fill="#fff" class="cls-1" d="M40.62,35.5c1.01.98,2.65.08,2.68,1.95,0,.56-.26,1.01-.28,1.49-.03.76.41,1.3.22,2.18-.27,1.23-1.3.98-2.12,1.36-.92.43-1.68,2.13-3.04.92-1.23-1.09-.79-.65-2.18-1.3-2.07-.96-.48-2.18-.56-3.15-.06-.79-1.16-1.62.1-2.64.51-.41.97-.23,1.38-.4,1.09-.46,1.18-1.87,3.07-1.29.48.15.49.64.74.88ZM39.8,39.12c0-.41-.33-.74-.74-.74s-.74.33-.74.74.33.74.74.74.74-.33.74-.74Z"/>
    </g>
  </g>
</svg>