<?xml version="1.0" encoding="UTF-8"?>
<svg id="Camada_2" data-name="Camada 2" xmlns="http://www.w3.org/2000/svg" viewBox="0 0 50.06 50.04">
  <g id="Camada_1-2" data-name="Camada 1">
    <g>
      <path fill="#fff" class="cls-5" d="M28.11,0c11.39.5,21.57,10.73,21.89,22.14-.13,1.85.18,3.91,0,5.72-.48,19.65-25.78,28.52-40.42,17.15C1.71,38.91-.56,31.29.26,21.69,1.21,10.48,10.45,0,22.14,0h5.97ZM15.42,9.45c-1.19.1-1.82.33-2.38,1.48l-.1,27.49c.37,1.53,1.17,1.62,2.47,1.88,4.14.81,15.97.59,20.55.27.48-.03.51-.13.84-.27.21-.09.86.13.5-.62-.2-.41-.93-.25-1.01-.53-.07-.25-.02-3.14.07-3.28s.65-.19.82-.54l.13-24.02c-.05-1.1-.9-1.89-2-1.86H15.42Z"/>
      <path fill="#8c8d8d" class="cls-2" d="M36.82,40.3c-.33.14-.36.23-.84.27-4.59.32-16.41.55-20.55-.27h21.39Z"/>
      <path fill="#a2a1a2" class="cls-7" d="M35.32,9.45c-6.45.39-13.52-.53-19.9,0h19.9Z"/>
      <path fill="#fff" class="cls-5" d="M22.89,26.12c-1.58-.63-.73-1.4-.89-2.53-.11-.81-.41-2.85-.67-3.5-.28-.69-.89-.76-1.28-1.21-1.49-1.72-1-4.38,1.09-5.32,1.72-.78,2.18.24,3.31.08.71-.1,1.05-.72,2.29-.72s1.57.61,2.29.72c.62.1,1.12-.41,1.7-.44,2.67-.15,4.47,2.89,2.96,5.2-.37.57-1.47,1.18-1.6,1.45-.22.49-.61,3.16-.73,3.94-.19,1.21.5,1.82-.78,2.33-2.54.27-5.17.3-7.71,0ZM28.28,14.75c-.82-.91-2.75-.78-3.38.32-.23.41-.27,1.47-.65,1.59-1.56.19-.52-1.84-.62-1.98-.51-.7-2.33-.05-2.85.75-1.47,2.27,1.24,3.8,3.35,3.23.11,1.14-.79,1.36-1.74,1.24.3.34.41,1.86.52,1.96.29.25,7.37.25,7.66,0,.1-.09.38-1.85.27-1.96-.23-.23-1.99.3-1.49-1.25.16-.17,2.99.91,3.62-1.49.66-2.55-2.85-3.4-3.09-2.35-.1.44.89,1.94-.64,1.84-.41-.14-.57-1.47-.96-1.9ZM23.13,23.13h0v1.99h7.22v-1.99h0c-1.8-.44-3.97-.27-5.85-.25-.42,0-1.11-.16-1.36.25Z"/>
      <path fill="#fff" class="cls-5" d="M35.07,36.07c.22,1.04.22,2.19,0,3.23H15.29c-2.06-.25-1.74-3.21.26-3.24h19.53Z"/>
      <path fill="#fefefe" class="cls-4" d="M16.17,31.09h-2.24v-7.96c.41,0,2.24-.15,2.24.37v7.59Z"/>
      <rect fill="#fefefe" class="cls-4" x="13.93" y="14.43" width="2.24" height="7.71"/>
      <path fill="#fdfdfd" class="cls-6" d="M33.58,29.85h-13.68c-.4-1.04.16-1.17,1.1-1.26,3.8-.34,8.1.28,11.96.01.71.06.66.65.62,1.24Z"/>
      <path fill="#fdfdfd" class="cls-6" d="M22.26,31.34h8.96c.47,0,.47,1.24,0,1.24h-8.96c-.38,0-.58-1.02,0-1.24Z"/>
      <path fill="#fcfcfd" class="cls-9" d="M13.93,32.09c2.83-.39,2.23.73,2.24,2.99-.85-.08-1.53.02-2.24.5v-3.48Z"/>
      <path fill="#fefefe" class="cls-4" d="M15.92,10.45l.25,2.74h-2.24c-.19-1.61.08-2.96,1.99-2.74Z"/>
      <path fill="#a9a8a9" class="cls-1" d="M30.6,26.12c-.33.13-.35.22-.84.27-1.51.13-4.8.16-6.27,0-.36-.04-.42-.19-.6-.26h7.71Z"/>
      <path fill="#bcbcbb" class="cls-8" d="M35.07,39.3v-3.23c.4.13.4,3.1,0,3.23Z"/>
      <path fill="#b6b6b6" class="cls-3" d="M30.35,23.13h-7.21c.26-.41.94-.25,1.36-.25,1.88-.02,4.05-.18,5.85.25Z"/>
    </g>
  </g>
</svg>