<?xml version="1.0" encoding="utf-8"?>
<svg data-name="Camada 2" id="Camada_2" viewBox="0 0 160 160" xmlns="http://www.w3.org/2000/svg" xmlns:xlink="http://www.w3.org/1999/xlink">
<defs>

<linearGradient data-name="Gradiente sem nome 22" gradientTransform="translate(44.79 88.61) scale(.16)" gradientUnits="userSpaceOnUse" id="Gradiente_sem_nome_22" x1="-287.43" x2="779.81" y1="-48.64" y2="88.32">
<stop offset="0" stop-color="#f9e3c6"/>
<stop offset="1" stop-color="#feeed8"/>
</linearGradient>
</defs>
<g data-name="Camada 1" id="Camada_1-2">
<g>
<path class="cls-8" d="M159.84,23.57c.13,3.79.13,7.6,0,11.4v12.18c.11.03.1.09,0,.16.02,18.54-.04,37.07-.16,55.57-.93.14-1.86.14-2.81,0,.89.12,1.83.18,2.81.16.12.31.13,2.84-.01,2.88-.02,0-.2-.1-.27-.14-.02-.01.3.12.28.23.14,17.59.14,36.07,0,53.7-25.09.12-50.22.17-75.4.16-.57.11-1.15.12-1.72,0h-12.8c-2.13.12-4.27.12-6.4,0h-11.55c-.03.11-.09.1-.16,0-17.24.02-34.46-.04-51.67-.16v-79.3c.25-.3.57-.58.97-.83-.32-.43-.22-.79-.07-1.26-.82-.4-.27-2.25.62-1.78.34.79.9,1.91,1.32.53l.27-.22c.79.16,1.36.1,2.12-.27.37.49.71.63,1.02.39,1.39-.79,2.81-1.51,4.26-2.16l.52-.61c1.71-.27,3.37-.72,4.99-1.35,7.09-3.42,14.48-7,21.42-10.73l.34.18c.04-.38.32-.49.85-.34.68.02,1.13-.18,1.34-.6.04-.14.1-.13.16,0l.47.68c3.66,19.58,25.86,28.9,40.05,13.35l.69-.29c.36.26.22.63-.41,1.09,8.62-.9,17.74-1.5,26.24-2.02.18-.37.41-.53.7-.48,3.12-5.52,6.38-11.35,9.32-17.12l.51-.52.04-.38c8.49-6.69,17.19-13.6,26.12-20.73l1.79-1.06c-.46-1.53-.21-2.16.76-1.88.04.3.26.52.64.64.08-.43.41-.7,1.01-.8,1.89-1.5,3.79-3,5.71-4.51-.54-.83-.14-1.24.83-1.21,1.17-.92,2.36-1.83,3.58-2.75.39-.93,1.44-.66,1.68.22Z" fill="url(#Gradiente_sem_nome_22)"/>
<path class="cls-5" d="M159.84,0c.14,7.65.14,15.86,0,23.57-.28-.07-.5-.36-.74-.44-.66-.22-.45.22-.73.45-.48.38-1.23.83-1.73,1.24-.85.7-1.59,1.99-2.89,1.56.18.31.14.62,0,.94-1.81,1.39-3.6,2.82-5.36,4.29-.75.65-1.07.39-.95-.76-.42-.07-.85-.08-1.29,0-.19-.56-.38-1.04-1.06-1.1-.16,1.31-1.73.77-1.43-.6-.59-.22-.69-.79-.28-1.73-1,.29-.89-.42-.79-1.14-.94-.67-.58-1,.26-1.41-1.47.46-2.27-.6-1.33-1.81-1.18-1-.89-2.23.75-1.68.04-.03-.08-.98-.09-.93-.21.97-1.13.88-1.28,0-2.01.62-2.3-1.25-.22-1.18.27-.5-.38-.99-.57-.34-1.07-.07-1.17.08-.94,1.17-.49,1.3-2.48-.55-1.21-1.23-.05-.55.03-.86.63-.96.36-2.32,1.63-1.94,2.35-.14.04.03.98-.18,1.01-.21.03-.02.4-.54.41-.57-.11-1.18.54-1.09,1.27-.46.38.09.19-.66.13-.82.19-.38,1.93-.94,2.12-.06l.31-.47c-.74-.92.54-1.36.93-.39.21-.58.34-1.22.38-1.93.76-.78.95-1.15-.16-.24-.14.11-.33.15-.5.16-.33,1.31-1.46.79-1.64-.31l-.58-.05c-.3-.38-.69-.49-1.19-.34-.71-.27-1.32.12-.78.7-.71,1.07-1.47.44-1.77-.61-1.1,1.18-1.81-1.4-.92-1.58.76.6,1.01.34.76-.77l.21-.57c-1.25,1.06-2.44,2.17-3.57,3.33-.21.96-.62,1.32-1.22,1.1-9.04,7.97-18.04,16.06-26.97,24.26-.5.9-1.51,2.01-2.08.59-2.54-3.07-5.03-6.21-7.49-9.38-.56.23-1.05.27-1.46.1-.7.37-1.26.03-1.7-1.01l-.96-.18c-.36-.36-.76-.41-1.2-.15-.39-.3-2.64-1.72-3-1.22-.59,2.12-2.07,1.07-1.74-.73-.43.34-.86.18-1.31-.51-.45,1.27-1.05.88-1.67,0-.55.39-1.25.24-1.16-.52-.27-.13-.52-.31-.47-.64-.91-.24-1.8-.47-2.67-.68l-.71-.23c-9.61-8.05-25.53-8.1-35.22-.3l-.44-.09c-.48.35-.9.77-1.25,1.25.07.13,0,.18-.16.16-4.03,4.45-5.8,10.64-5.8,16.5l.18.2v.37c-.77.2-1.04.6-.83,1.2.64-.09.72.57.36.93l.17.47c.06,5.8.38,11.6,1.39,17.32.07.33.02.75.15,1.09-.54-.55-.93-.21-1.48-.18-.36.01-.34-.15-.86.03l-.87-.54c-7.82-7.48-15.48-15.22-22.96-23.22l-12.01-3.34c-.67-.22-1.32-.5-1.94-.83V0h159.84Z" fill="#f1d1aa"/>
<path class="cls-15" d="M0,34.34c4.72,1.22,9.41,2.62,14.11,3.92,5.69,5.98,11.47,11.91,17.26,17.71,2.12,2.12,4.24,4.25,6.4,6.32-.42.14-1.46.79-1.98,1.06-4.86,2.57-9.81,5.04-14.77,7.4-1.84.88-4.93,2.56-6.74,3.1-.58.17-2.86.44-3.18.65-.08.05-.12.4-.44.58-.58.33-1.52.67-2.13.99-.79.41-1.57,1.02-2.45,1.3s-.47-.07-.86-.55c-.22.34-.57.27-.9.36-.14.04-.26.2-.36.21-.17.02-.45-.35-.76-.25-.29.08-.25.93-.76.9-1.01-.06-.99-1.37-1.28-1.37-.21.17-.44.95-.38,1.15.06.23.61.36.61.49,0,.02-.22.18-.28.35-.25.76.22.64.26.69.19.28-.93,1.23-1.38,1.08v-46.05Z" fill="#f6dcbb"/>
<path class="cls-2" d="M159.84,0h.16v160H0v-.16c17.18-.07,34.4-.07,51.67,0,.05,0,.1,0,.16,0h11.55c2.13,0,4.27,0,6.4,0h12.8c.57,0,1.15,0,1.72,0l75.4-.08.15-56.74c-.35-.06-.43-.17-.08-.25l.08-55.48c0-.05,0-.1,0-.16v-12.18c0-3.82,0-7.57,0-11.4V0Z" fill="#fff"/>
<polygon class="cls-14" fill="#fcebd3" points="51.67 159.84 0 159.84 0 159.69 51.67 159.84"/>
<path class="cls-9" d="M18.89,132.06c-.45-.08-.67-.38-.87-.77.05-5.27-.3-10.75-.08-16.02.5-11.75,9.01-19.96,20.53-21.15l6.79-.39,17.96,15.92c.28.22.6.32.94.18,5.93-5.36,11.93-10.65,17.9-15.98,4.44.07,9.44.18,13.58,1.97.47.2,1.13.52,1.57.78.09.05.31,0,.2.26-.08.19-1.72,1.42-2.03,1.72-4.94,4.65-8.21,11.35-8.43,18.19-.18.99-.18,2.13,0,3.12.1,3.22.84,6.39,2.11,9.36.3.69,1.2,2.08,1.32,2.66-17.56.11-35.15.13-52.79.05-.08-4.69-.13-9.39-.13-14.1-.04.14-.1.13-.16,0-.15-1.1-2.03-1.1-2.19,0-.04.14-.1.13-.16,0l-.11,14.08-15.97.12Z" fill="#6b5744"/>
<path class="cls-11" d="M82.26,23.57l.64-.23c.58.41,1.73.29,2.23.69.15.12.06.32.14.43s.32.09.4.31c.13.34-.19.72.54.49.14-.04.28-.24.35-.25.23,0,.99,1.44,1.17.8.45-1.62,1.22.11,1.33.11,1.41-1.52.36,1.36,1.1,1.56s.8-.98.88-1.07c.04-.04.67-.17.8-.15.07.01,1.22.47,1.35.53.3.15,1.21.95,1.4.82.05-.04-.07-.32.25-.29.36.03.55.36.82.44.25.07.51.03.82.12.69.22.46,1.01.88,1.14.66.21.55-.28.69-.45.33-.42.29.44.31.47.12.2,1.18-.42,1.45-.16,1.74,2.04,3.28,4.23,4.95,6.33.82,1.03,1.79,1.98,2.57,3.05.29.4.05.69.6.59s.66-.77,1.04-1.15c2.55-2.56,5.45-4.88,8.13-7.33,5.63-5.16,11.28-10.37,17-15.31.46-.4,1.33-1.55,2.02-1.71.2-.05.53.15.63.08.04-.03.19-.78.34-.99.13-.18,1.96-2.01,2.11-2.1.96-.58,1.03-.94,1.85-1.59.18-.14.47-.14.63-.31s.19-.57.39-.71c.4-.27.78-.1.63.4.32-.2.59,0,.94,0-.26.63.08.82.15,1.4-.34.06-.48-.42-.84-.3-.12.04-.72,1.05-1.03.77s.31-.32.32-.4c.05-.32-.21-.93-.55-.85-.13.03-.56.78-.6.97-.09.39.21.85-.02,1.22-.44.73-1.13-.21-1.17-.16,0,.39,0,.98.47.94l-.31.47c.6.12.36-.48.99-.32.26.07.5.98.58,1.09.09.13.75-.14.93-.15l-.62-.31c.06-.28.55-.49.6-.72s-.29-.51-.28-.6.4-.27.53-.4c.22-.23.32-.74.79-.61.33.09.24.82.24,1.09-.11.12-1.25-.52-.94.23.13.31,1,.32,1.26.16.21-.13,0-.32,0-.45s.36,0,.32-.33c-.05-.38-1.47-1.68.37-1.34.06.01.4.86.55,1.01-.18.24-.93.91-.86,1.19.16.69.79.25.99.5s.18,1.09.82.99c.4-.19.28-.83.31-.87.02-.02.24.17.46.08.26-.1.97-.69.54-.87-.27-.11-.69-.41-.79-.43-.24-.05-.53.33-.75.29s-.53-1.63-.24-1.8c.48-.29,1.03.27,1.02-1.01.26.25.55.87.86,1.02.14.07,1.23-.13,1.56.07.02.01.01.45,0,.47-.08.08-1.05-.33-1.56-.08-.64.32-.03.75.12,1.14.06.15,0,.43.06.48.09.08.77-.19.43.86-.07.21-.36.2-.41.28-.08.12-.38,1.56.12,1.45-.48.06-.58.82-.63.86-.02.02-.45.02-.46,0-.11-.23.15-.64-.62-.62-.1.3.36.45.3.68,0,.04-.44.68-.48.7-.45.29-.73-.61-.84-.6-.06,0-.71.57-1.17.31-.09.09.56.91-.31,1.19-.41.13-.81-.69-1.09-.41-.06.06.35.88-.47,1.01.52.45.94-.08.78.86-.47.16-.42-.24-.58-.3-.8-.29-.91.06-1.37.09-.53.04-.37-.57-.6-.84-.05-.06-.22-.11-.33-.21s-.15-.31-.25-.38c-.71-.53-.79,1.22-1.02,1.49-.15.18-.48.11-.53.17-.08.09.03.47-.04.67-.07.24-.4.22-.44.27-.02.03.15.7.17.73.03.04.85.4.91.34-.29-1.01-.19-2.05,1.09-1.56.21-.2-1.04-1.31-.16-1.25-.17.72,1.25.78,1.22,1.45-.06,1.17-.93.4-1.34.77-.16.14-.22.53.05.59s.77-.29,1.23-.14c.31.1.2.53.27.59.05.04.59.05.61.02.06-.09-.07-.56,0-.62.04-.04.67.02.84-.18.4-.04.31-.91.64-.76.43.19.03,1.41.75,1.76.27.13.95.03,1.26-.05.06-.02.3-.58.58-.31.05.05.02.46-.15.55-.13.07-.35-.16-.55.06-.23.25-.21.97-.64,1.09-.48.14-.41-.31-.63-.46-.24-.17-.6-.03-.64-.57-.02-.27.27-.7-.12-.82-1.29-.39-.35,1.43-.38,1.78-.05.61-.98.74-1.1.31-.1-.39.27-.5.39-.7.22-.36-.91-.48-1.02-.08-.11.43.71.94.73,1.25.02.32-.78.88-.19,1.49.42.42,1.44-.2,1.64,0,.37.37-.59.82-.84.93-.46.19.2.38.29.48.38.39.05.79.09,1.25.42.09.82-.35,1.09.08-.31.12-.54,1.55-.46,1.64l.62-.47c-.17.24-.07,1.64,0,1.72.04.04.61-.03.78,0-.07-.63-.44-1.23.31-1.56-.22,1.33.32.74.78,1.17.23.22.26.81.31.86.09.09,2.06-.8,1.4,1.09.7.1.96-.63,1.32-.94,1.04-.88,2.35-1.51,3.21-2.56l1.55-.87c-.11.24-.35.44-.55.62-1.11,1.01-2.69,2.19-3.9,3.12-.64.49-1.54,1.3-2.26,1.56-.43-.15-.71-.65-.53-1.1-.59.25-.92-.2-.9-.78-.01-.01-.3.07-.34.11-.21.21-.75.96-.67,1.32.24.75.1,1.17-.44,1.27l.43.5c.52-.37.86-.39,1.03-.08-1.59,1.29-3.17,2.61-4.76,3.9-6.15,4.97-12.55,9.87-18.8,14.76-1.2.94-3.15,2.83-4.38,3.5-.36.2-.51.49-.71.86-2.95,5.59-6.02,11.38-9.12,16.78-.18.23-.31.55-.47.7-.42.38-2.66.19-3.35.24-3.76.27-7.6.67-11.38.79s-7.45.85-11.1,1.08c-.22.01-1.18.06-1.17-.23,0-.15,1.01-.76.93-1.17-.17-.52.54-1.47,1.09-1.4.75-1.05,1.42-2.14,2.03-3.28-.36-.33-.01-1.03.47-.94,3.77-7.87,4.32-17.35,4.17-25.64l-.11-.27c-.3-.09-.3-.22,0-.31h-17.01c-1.24.46-3.05-.13-4.35-.56-2.51-.85-5.24-2.44-6.66-4.66-1.16,1.86-3.46,3.32-5.5,4.2-2.35,1.02-4.64,1.41-7.06,1.17-3.24.03-6.47.09-9.68.16-.02.42-.18.4-.31,0,0-.06-.29-.29,0-.62-.15-.03-.58.05-.62,0-.03-.04-.13-.95-.12-1,.08-.41.91-.65,1.22-.88,3.3-.07,6.6-.1,9.91-.09.95-.09,1.8-.21,2.57-.38l.31-.38c3.12-.71,6.06-2.35,7.68-5.13.98-1.46,2.13-1.58,3.14-.08,1.64,2.73,4.42,4.5,7.55,5.2l.36.39c6.11.38,12.25.43,18.42.16.04-.14.09-.13.16,0,.1-2.89-.46-6.09-1.4-8.9-.07.04-.15.08-.23.09-.2.03-1.56-3.13-1.34-3.52-.09-.14-.08-.27.06-.35.28-.17-.89-1.79-1.32-2.03-.12-.79-.77-1.39-1.55-1.53-.57.03-.97-.36-.94-.94Z" fill="#f5d8b5"/>
<path class="cls-9" d="M71.96,43.24h17.01c0,.1,0,.21,0,.31.09.13.16.26.17.39.35,8.37-.75,17.97-4.23,25.52-.19.33-.31.6-.47.94-.61,1.14-1.27,2.23-2.03,3.28-.36.45-.72.99-1.09,1.4-7.38,8.24-18.5,11.31-28.46,5.43-7.18-4.24-11.05-11.13-12.75-19.17-1.14-4.88-1.45-9.99-1.4-14.99.09-.96.15-1.91.18-2.86,3.15-.06,6.37-.1,9.53-.02,1.3.03,1.2.18.05,0-.03,0-.06-.04-.08-.09.15-.26.6-.15.86-.16,4.47-.05,8.84-2.04,11.71-5.46,2.79,3.36,6.67,5.1,11,5.46Z" fill="#6b5744"/>
<path class="cls-9" d="M112.36,93.7c21.1-1.44,34.23,22.27,21.86,39.34-9.55,13.17-28.96,13.93-39.31,1.27-12.86-15.72-2.85-39.23,17.45-40.62Z" fill="#6b5744"/>
<path class="cls-9" d="M51.67,82.58c4.76,2.82,9.67,3.94,15.22,3.28,3.29-.39,6.43-1.68,9.29-3.28v5.54c0,.28.56,1.58.75,1.9.68,1.18,1.45,1.6,2.49,2.35.11.08.27-.04.2.27l-15.84,14.13-16-14.05c0-.14-.08-.24.1-.32,1.74-.73,3.26-2.55,3.48-4.46.06-.54-.02-1.09.01-1.62l.08-3.55c0-.21.03-.3.23-.2Z" fill="#6b5744"/>
<path class="cls-14" d="M159.84,103.02c0,18.94,0,37.88,0,56.82h-75.55s75.4-.16,75.4-.16v-53.7c0-.05-.77-.23-.78-.62l.78.47v-2.81c.05-.14.1-.13.16,0Z" fill="#fcebd3"/>
<path class="cls-1" d="M37.46,117.85l.16,14.05h52.76s0,.1,0,.16l-52.65.16-.11-.16s-.13-.1-.16-.16c-.15-4.61-.13-9.46,0-14.05Z" fill="#352315"/>
<path class="cls-13" d="M159.84,103.02h-.16c-.54,0-1.09-.01-1.64,0-.33,0-.97.36-1.17-.15h2.81l.16-55.57v55.73Z" fill="#f9e2c6"/>
<path class="cls-14" d="M90.38,132.06l-52.76.31c-.02-.1.03-.25,0-.31h52.76Z" fill="#fcebd3"/>
<path class="cls-5" d="M145.64,33.87c-.32,0-.96.46-1.18.44-.13-.01-.21-.31-.32-.43-.54-.55-.24-.52-.39-.77-.05-.08-.66-.15-.76-.42-.12-.32.58-.52.77-.38.06.04.12.52.17.67.05.19.45.12.47.1.14-.15-.35-1.11.09-1.71.08-.1.26-.12.33-.21.2-.27,0-.55.63-.7.74-.18.42.07.51.51.15.74.54-.02,1.09.08.13.33-.34.63-.29.83.04.18.4.4.29.73-.53.19-1.06.37-.78-.47-1.37.02.19,1.07-.62,1.72Z" fill="#f1d1aa"/>
<path class="cls-13" d="M117.7,56.04c-3.07,5.49-5.78,11.22-9.12,16.56-.31.49-.33.59-.72,1.08-.02-.3.1-.53.23-.79.58-1.21,1.35-2.33,2-3.47,2.24-3.92,4.4-7.96,6.4-12.02.14-.28.66-1.26.85-1.34.13-.05.31,0,.36-.03Z" fill="#f9e2c6"/>
<path class="cls-6" d="M34.97,117.85c.13,4.47.15,9.34,0,13.89-.04.11,0,.25-.16.31h-15.77c-.05,0-.11,0-.16,0l15.92-.16.16-14.05Z" fill="#3e2b1a"/>
<path class="cls-15" d="M38.71,43.55c.12.93.13,1.89,0,2.81.06,4.91.39,10.18,1.4,14.99h-.16c-1.27-6.19-1.25-11.55-1.56-17.8.1-.02.23.03.31,0Z" fill="#f6dcbb"/>
<path class="cls-14" d="M37.46,131.9s-.25-.19-.17-.37v-13.68h.17v14.05Z" fill="#fcebd3"/>
<path class="cls-14" d="M34.97,131.75v-13.89h.16v13.52c.07.18-.13.31-.16.37Z" fill="#fcebd3"/>
<rect class="cls-14" fill="#fcebd3" height="13.58" width=".16" x="37" y="118.17"/>
<path class="cls-15" d="M51.67,82.58c-.26.15-.15.6-.16.86,0,1-.09,1.94-.15,2.89v-3.9c.3-.09.27.13.31.16Z" fill="#f6dcbb"/>
<path class="cls-13" d="M86.95,119.88c-.26-.15-.15-.6-.16-.86,0-.47,0-.94,0-1.41,0-.26-.11-.7.16-.86-.03,1.01-.03,2.11,0,3.12Z" fill="#f9e2c6"/>
<path class="cls-9" d="M82.26,23.57c.32.31.64.61.94.94.76.25,1.32.83,1.69,1.75.76.64,1.13,1.36,1.12,2.16.38.7.7,1.46,1.01,2.19.11.25.4,1.26.55,1.25.61,1.67,1.07,3.53,1.09,5.31-.03,1.16.01,2.33.14,3.51l-16.37.08c-.66.06-1.41.06-2.03-.16-2.53-.46-5.22-1.83-6.95-3.74-.62-.68-1.61-2.65-2.49-2.65s-1.89,1.97-2.49,2.65c-1.66,1.88-4.64,3.31-7.11,3.74-.63.22-1.56.34-2.19.16-2.85.06-5.66.11-8.43.16-.45.05-1.94.18-2.04.01-.29-.48.24-3.92.39-4.77.77-4.45,2.45-8.54,5.4-11.79.05-.05.1-.11.16-.16.32-.5.79-.88,1.25-1.25.68-.41,1.16-.91,1.82-1.38,9.53-6.64,26.01-6.17,34.55,2Z" fill="#6b5744"/>
<path class="cls-15" d="M44.49,24.35l-1.94,2.67c-2.66,4.16-3.57,9-3.84,13.88.67,0,1.36,0,2.03,0,2.91.03,5.72-.03,8.43-.16.68-.02,1.53-.04,2.19-.16l.08.15c-4.14.63-8.38.19-12.56.32-.46-.18-.34-.94-.32-1.33.3-5.43,2.03-11.48,5.94-15.37Z" fill="#f6dcbb"/>
<path class="cls-15" d="M45.89,22.95c-.31.52-.83.85-1.25,1.25.04-.34.5-.81.78-1.02.22-.17.36-.16.47-.23Z" fill="#f6dcbb"/>
<path class="cls-13" d="M108.95,41.53c.07.1-.02.44.01.61h-.63c-.13.73.25,1.29.94,1.5.31.1,1.04-.22.95.6-.01.11-.97.44-1.08.81-.24.81.72.33.76.37.28.28-.73.54-.75.86,0,.14.32.41.28.62-.08.42-1.7.25-1.73-.02-.05-.4.31-1.14.25-1.55-.08-.58-.08-.64-.11-1.25-.02-.42-.34-1.27-.05-1.65.14-.19.55-.03.39-.68-.02-.1-.51-.11-.31-.56.18.34,1.01.21,1.08.32Z" fill="#f9e2c6"/>
<path class="cls-13" d="M88.98,43.55c.46-.09.32.24.32.54,0,7.51-.6,18.83-4.37,25.37.23-.92.72-1.73,1.05-2.61,2.54-6.77,3.24-16.09,3-23.3Z" fill="#f9e2c6"/>
<path class="cls-5" d="M139.91,12.75c.65.51.95.08,1.42.22.53.15.02.95-.3.92-.16-.01-.28-.6-.54-.62.28.73-.08,1.01-.18,1.69-.45-.04-.75.6-1.14.49-.45-.13-.31-1.8-.24-1.87.04-.03.96.08.93-.23,0-.02-.17-.38-.27-.39-.15-.02-.35.06-.48-.02-.08-.05-.52-1.02-.5-1.14.03-.18.21-.26.39-.08.26.24.62.83.9,1.05Z" fill="#f1d1aa"/>
<path class="cls-5" d="M83.2,24.51c.8-.54,1,.24,1.3.43.12.08.34,0,.41.05.05.04-.04.82.16,1.14.12.19.51.18.71.42.53.61.29,1.98,1.8,1.4.08.41-.54.6-.59.88-.04.21.32.65-.11.84-.05.02-.39-.8-.46-.94s-.17-.54-.39-.31c-.74-1.36-1.77-2.76-2.81-3.9Z" fill="#f1d1aa"/>
<path class="cls-13" d="M70.4,40.59c.65.12,1.37.13,2.03.16,5.47-.05,10.93-.05,16.39,0-.15.26-.6.15-.86.16-5.88.07-11.81.23-17.64-.16l.07-.15Z" fill="#f9e2c6"/>
<path class="cls-10" d="M88.98,40.74s-.11,0-.16,0c-5.43-.15-10.97.2-16.39,0l16.23-.16c-.02-.49.03-.99,0-1.48-.04-.58-.42-1.39,0-1.95.28,1.03.4,2.43.31,3.59Z" fill="#49331c"/>
<path class="cls-5" d="M143.3,29.19c-.11.36.6.91.6,1.01,0,.03-.27.38-.33.58-.07.21-.09.72-.11.74-.05.05-1.13.16-1.28.14-.53-.07-.56-.7-.83-.75-.19-.04-.63.62-.84.07-.1-.26-.05-.34.2-.43.38-.13,1.32.08,1.74.2.18.05.62.4.71.31.49-.53-1-1.71.16-1.87Z" fill="#f1d1aa"/>
<path class="cls-5" d="M142.93,34.77c-.08.09-.31,0-.26.12l.31.55c-.38.01-1.28.06-1.49-.31-.11-.19-.02-.51-.1-.6-.06-.07-.52-.02-.6-.26s.29-.46.54-.39c.3.09.08,1.18,1.02.93.14-.14-.28-1.64-.3-1.97-.01-.2-.01-.68.22-.68.36,0,.18,1.17.26,1.45.12.39.94.57.38,1.16Z" fill="#f1d1aa"/>
<path class="cls-13" d="M108.49,50.89l.24,1.09c.47.09.3-.78.62-.93.67.19.32.8.39,1.4-.36-.02-1.3-.09-1.35.38-.03.3.37.85-.37.86.09-.4-.16-.81-.16-1.17,0-.17.14-1.25.19-1.38.06-.2.24-.3.44-.26Z" fill="#f9e2c6"/>
<path class="cls-13" d="M88.98,40.74c-.03-.86-.23-1.72-.31-2.58-.03-.33.04-.7,0-1.02-.23-1.8-.66-3.55-1.09-5.31.02,0,.08-.14.15-.16.75,2.53,1.23,5.09,1.41,7.73.02.28.1,1.26-.16,1.33Z" fill="#f9e2c6"/>
<path class="cls-12" d="M48.39,43.4l1.01.16h-10.54c0,.65,0,1.3,0,1.95,0,.26.11.7-.16.86-.01-.93,0-1.88,0-2.81.08-.03.14-.15.37-.16,3-.22,6.27.18,9.3,0Z" fill="#432e1c"/>
<path class="cls-13" d="M109.41,55.56s-1.19.14-1.24.1c-.2-.16-.19-.9-.31-1.18.18-.17,1.67.34,1.68.54,0,.03-.12.52-.14.54Z" fill="#f9e2c6"/>
<path class="cls-13" d="M108.18,49.47c-.05-.07.02-.33,0-.46.79.29.78-.73,1.02-.78.59-.14.53,1.14.24,1.34-.22.15-1.18.02-1.25-.1Z" fill="#f9e2c6"/>
<path class="cls-5" d="M95.96,30.01c.51.53-.02,1.46-.74,1.37-.36-.6.03-2.11.74-1.37Z" fill="#f1d1aa"/>
<path class="cls-13" d="M109.41,66.98s.04.59.01.61c-.04.04-.84.07-1.09.09-.46.05-.3-.73-.32-1.03.22.09,1.34.27,1.39.33Z" fill="#f9e2c6"/>
<path class="cls-5" d="M137.21,19.36s.03.26.15.4c.15.17.44.21.47.24.07.09-.24.69-.15.92-.14.16-.87-.55-.92-.73-.08-.29.12-1.07.45-.83Z" fill="#f1d1aa"/>
<path class="cls-13" d="M114.09,58.72c.05.04.58,1.14.49,1.23-.79.1-1.22-.5-1.09-1.25.18.03.48-.06.6.02Z" fill="#f9e2c6"/>
<path class="cls-5" d="M140.78,26.71s.03.37.16.54c.04.05,1.36.66.56.69-.09,0-.69-.54-1.17-.15.08-.24-.25-1-.16-1.09.02-.02.55-.03.61.02Z" fill="#f1d1aa"/>
<path class="cls-13" d="M109.27,65.41c-.13,1-1.57,1.08-1.32,0,.5.18.83.1,1.32,0Z" fill="#f9e2c6"/>
<path class="cls-13" d="M82.42,73.68l2.03-3.28c-.69,1.43-1.05,2.04-2.03,3.28Z" fill="#f9e2c6"/>
<path class="cls-5" d="M137.37,22.79c.13.16,0,1.7-.62,1.56l-.16-.94c.12-.02.39.05.46,0,.03-.02-.05-1.06.32-.62Z" fill="#f1d1aa"/>
<path class="cls-13" d="M109.58,53.23c.55-.24.98,0,1.4.39-.7.7-1.02.36-1.4-.39Z" fill="#f9e2c6"/>
<path class="cls-5" d="M137.99,14.36c-.19,0-.47-.61-.47-.7,0-.18.46-.91.7-.86.53.4-.38.98-.23,1.56Z" fill="#f1d1aa"/>
<path class="cls-5" d="M141.27,32c.05.04.22.9.16.94-.31-.17-1.09.48-1.25.31-.02-.02-.07-.45.09-.47.17-.02.65.04.69,0s-.14-1.15.31-.78Z" fill="#f1d1aa"/>
<path class="cls-13" d="M112.55,50.11c-.13.43.36.95-.08,1.25-.1-.15-.7-.63-.7-.7,0-.05.64-.71.78-.55Z" fill="#f9e2c6"/>
<path class="cls-5" d="M138.61,16.39c-.18.2-.86-.66-.76-.98.03-.1.33-.41.37-.42.16-.01.44,1.35.39,1.4Z" fill="#f1d1aa"/>
<path class="cls-13" d="M112.86,49.33c-.34.42-.31-.55-.34-.67-.1-.32-.56-.59-.43-1.05.52-.04.46.54.59.89.08.22.48.46.19.82Z" fill="#f9e2c6"/>
<path class="cls-5" d="M137.29,16.86c.1.1,1.03.85.47.93-.51.08-1.27-.52-.47-.93Z" fill="#f1d1aa"/>
<path class="cls-5" d="M143.45,14.67c-.17-.06-.87.53-.94.08-.1-.62.87-.87.94-.08Z" fill="#f1d1aa"/>
<path class="cls-5" d="M141.74,36.22c.07.48-.72.9-.94.39l.94-.39Z" fill="#f1d1aa"/>
<path class="cls-5" d="M145.48,12.96c.2.43-.7,1.17-.94.94-.02-.02-.08-.42.11-.47.63-.15.32-.46.83-.47Z" fill="#f1d1aa"/>
<path class="cls-5" d="M139.67,38.37c-.6.46-.96-.3-.75-.44.03-.02.67-.15.71-.15.24,0,.2.47.04.59Z" fill="#f1d1aa"/>
<path class="cls-5" d="M88.82,26.22c.23-.21,1.22.63.54.78-.33.07-.7-.64-.54-.78Z" fill="#f1d1aa"/>
<path class="cls-5" d="M141.42,15.61c.02.41.09.97-.47.94.05-.58-.26-1.09.47-.94Z" fill="#f1d1aa"/>
<path class="cls-5" d="M95.69,27.94v.62s-.78,0-.78,0c-.02-.42.39-.69.78-.62Z" fill="#f1d1aa"/>
<path class="cls-5" d="M136.58,29.5c.33.4-.86.55-1.09.31-.03-.18.51-.37.61-.39s.46.06.48.08Z" fill="#f1d1aa"/>
<path class="cls-13" d="M112.4,57.74s-.03-.59-.01-.61c.16-.16.75.09.62.54-.07.24-.51.2-.61.07Z" fill="#f9e2c6"/>
<path class="cls-13" d="M114.26,55.41h-.78c-.07-.9.7-.72.78,0Z" fill="#f9e2c6"/>
<path class="cls-5" d="M142.83,15.3c.34-.04.41-.02.6.26.5.74-.77.52-.6-.26Z" fill="#f1d1aa"/>
<path class="cls-5" d="M135.81,34.19c.13.6-1.06.38-.94-.16l.94.16Z" fill="#f1d1aa"/>
<path class="cls-5" d="M97.72,29.66c.03.53-.72.6-1.09.62.03-.25.99-.71,1.09-.62Z" fill="#f1d1aa"/>
<path class="cls-5" d="M90.07,27.79c-.03.75-.64.33-1.09.31.14-.39.78-.19,1.09-.31Z" fill="#f1d1aa"/>
<path class="cls-5" d="M136.11,37.78c.07.11.13.74.16.94l-.62-.7c-.13-.35.45-.25.46-.23Z" fill="#f1d1aa"/>
<path class="cls-5" d="M136.74,34.65c0-1.24,1.06-.25.39,0-.09.03-.27-.02-.39,0Z" fill="#f1d1aa"/>
<path class="cls-13" d="M116.45,55.1l.62.55c-.44.54-.72-.01-.62-.55Z" fill="#f9e2c6"/>
<path class="cls-5" d="M140.33,22.95c-.65.08-.28-.76-.31-1.09l.31,1.09Z" fill="#f1d1aa"/>
<path class="cls-5" d="M146.89,9.83c.19.19-.13.62-.39.62-.44,0,.02-.99.39-.62Z" fill="#f1d1aa"/>
<path class="cls-5" d="M141.27,24.66s.13.76-.23.62c-.54-.21.03-.82.23-.62Z" fill="#f1d1aa"/>
<path class="cls-5" d="M138.61,32.78s-.76.13-.62-.23c.21-.54.82.03.62.23Z" fill="#f1d1aa"/>
<path class="cls-4" d="M55.3,69.5c.97-.97,2.06.39,2.88.87,3.05,1.79,7.45,1.98,10.61.37,1.09-.56,2.28-2.35,3.41-1.13,1.55,1.67-2.57,3.56-3.83,3.99-3.69,1.26-9.89.83-12.81-2.02-.55-.54-.88-1.46-.27-2.07Z" fill="#f7dfc0"/>
<path class="cls-3" d="M52.73,51.87c1.74-.2,4.24.06,5.71,1.08.76.53,1.12,1.67.25,2.23-.91.6-1.9-.36-2.8-.62-1.41-.4-3.06-.29-4.42.27-.75.31-1.48,1.12-2.3.2-1.64-1.82,2.29-3.02,3.56-3.16Z" fill="#f6dbba"/>
<path class="cls-15" d="M72.55,51.87c1.62-.19,4.41.03,5.73,1.05s.59,2.7-1.06,2.31c-.29-.07-.51-.34-.8-.44-1.8-.63-3.36-.65-5.16,0-.8.28-1.55,1.15-2.35.18-1.53-1.89,2.35-2.94,3.64-3.09Z" fill="#f6dcbb"/>
<path class="cls-7" d="M127.24,113.03c.13.99.27,1.4,1.32,1.53,1.5.17,3.75,0,3.97,2.12.11,1.07.14,4.13-.01,5.15-.31,2.06-3.43,1.93-4.97,1.97.08.4-.52,1.04-.46,1.29.05.21,1.28,1.26,1.54,1.58,1.91,2.39-.05,4.16-1.87,5.78-1.34,1.19-2.59,2.35-4.37,1.08-.38-.27-1.66-1.73-1.96-1.75-.23-.02-1.23.74-1.62.76-.03,1.9.24,4.72-2.28,4.98-1.2.12-4.28.15-5.45-.01-2.29-.31-1.9-3.27-1.98-4.96l-1.62-.76c-1.19.99-2.41,2.65-4.14,2.24-.81-.19-3.05-2.48-3.66-3.21-1.05-1.25-1.59-2.35-.54-3.83.34-.48,1.47-1.45,1.65-1.8.13-.25-.29-1.45-.42-1.53-.1-.07-1.99-.01-2.48-.09-1.07-.17-1.87-.6-2.25-1.65s-.38-4.85.04-5.89c.33-.82,1.31-1.31,2.15-1.44.37-.06,2.46-.09,2.55-.18.05-.04.32-1.21.3-1.29-.06-.24-1.06-1.05-1.31-1.35-2.4-2.82-.1-4.27,1.88-6.24.48-.47.73-1.01,1.42-1.39,1.94-1.07,3.38,1.03,4.79,1.99.47-.41,1.08-.54,1.64-.79.01-1.76-.3-4.78,2.12-4.98,1.09-.09,5.14-.16,6.02.08s1.47,1.32,1.56,2.19c.05.53-.1,2.52.31,2.82.07.05,1.41.67,1.49.66.32-.02,2.08-2.09,3.32-2.27,1.48-.23,3.56,2.03,4.49,3.09,1.39,1.58,2.16,2.66.62,4.53-.44.54-1.18,1.24-1.78,1.58Z" fill="#fce7cd"/>
<path class="cls-11" d="M49.17,40.74c-.15.26-.6.15-.86.16-2.52.03-5.05.03-7.57,0,.15-.26.6-.15.86-.16,2.51-.02,5.06.09,7.57,0Z" fill="#f5d8b5"/>
<path class="cls-9" d="M116.29,102.87c.14,1.01.03,2.33.23,3.29.13.64.46,1.01,1.04,1.3.45.23,2.09,1.01,2.48,1.11.72.2,1.28.07,1.9-.3.54-.32,1.89-1.94,2.37-1.8.19.06,2.61,2.49,2.83,2.81.08.11.26.32.17.46-.54.92-2.46,1.59-2.59,2.88-.09.84.61,2.9,1.12,3.57.69.92,3.11.72,4.2.88-.04,1.36,0,2.71.16,4.06-1.55.35-3.76-.33-4.75,1.26-.17.28-.77,1.81-.84,2.13-.4,1.94,1.5,2.71,2.3,4.16-.86.77-1.68,1.9-2.57,2.59-.13.1-.39.33-.55.24-.6-.36-1.24-1.45-2.01-1.9-.93-.55-1.51-.45-2.47-.09-.59.23-2.49,1.14-2.74,1.63-.05.09-.28.77-.28.82v3.04h-4.51c-.46-1.22.25-3.04-.56-4.05-.33-.42-2.63-1.53-3.19-1.65-1.89-.41-2.6,1.18-3.91,2.2-.12.11-.19.06-.31,0-.72-.37-1.67-2.17-2.5-2.65-.09-.09-.16-.19-.16-.32,0-.36,2.12-2.09,2.31-3,.18-.82-.7-3.4-1.38-3.86-1.06-.73-3.63-.33-4.06-.62-.33-.22-.06-3.36-.14-3.99,1.59-.4,3.57.38,4.55-1.3.25-.43.88-2.23.88-2.69,0-1.46-1.64-2.44-2.47-3.45-.08-.37,2.47-2.76,2.9-3.17.45-.09,2.38,2.37,3.7,2.28l3.59-1.54c.15-.08.57-.78.57-.84v-3.51h4.68Z" fill="#6b5744"/>
</g>
</g>
</svg>