<svg version="1.1" xmlns="http://www.w3.org/2000/svg" style="display: block;" viewBox="0 0 1324 1320" width="331" height="330">
<path transform="translate(0,0)" fill="rgb(0,0,0)" d="M 1055.45 197.482 C 1055.62 197.441 1055.78 197.387 1055.95 197.359 C 1058.82 196.888 1062.11 197.648 1064.24 199.72 C 1065.66 201.103 1066.43 202.925 1066.43 204.888 C 1066.42 210.129 1019.31 327.161 1015.6 330.868 C 1014.28 332.184 1012.39 332.782 1010.52 332.626 C 1007.82 332.4 1006.6 331.219 1004.87 329.418 C 1004.39 325.396 1005.57 321.021 1006.75 317.19 C 1010.54 304.873 1016.68 293.035 1021.46 281.061 C 1028.47 263.521 1034.35 245.581 1042.02 228.272 C 1020.97 238.419 983.659 272.067 964.83 288.83 C 886.139 358.887 810.391 440.783 765.922 537.457 C 755.768 559.53 748.984 581.961 740.789 604.68 C 771.132 598.495 814.574 597.911 845.526 600.501 C 909.894 605.886 978.303 630.044 1020.86 680.636 C 1052.32 718.036 1068.32 763.178 1063.93 812.067 C 1060.9 845.872 1043.02 877.577 1017.11 899.208 C 979.662 930.466 933.168 941.546 885.142 937.129 C 844.369 933.379 804.866 910.572 778.971 879.182 C 730.594 820.541 713.395 742.293 716.574 667.635 C 717.227 652.303 720.021 637.377 721.5 622.135 C 666.663 632.212 599.968 657.815 554.539 689.768 C 430.519 768.077 348.713 900.531 356.337 1049.6 C 357.327 1068.97 357.93 1088.88 360.021 1108.13 C 360.928 1116.49 367.543 1139.34 365.536 1146.02 C 365.118 1147.41 364.011 1148.18 362.673 1148.69 C 360.277 1149.59 357.528 1149.93 355.101 1149.11 C 347.466 1140.79 342.417 1075.87 341.88 1061.83 C 337.426 945.423 371.689 842.539 451.706 756.378 C 511.595 692.144 587.527 645.038 671.678 619.914 C 688.195 614.858 706.744 608.437 724.036 607.792 C 729.44 597.225 731.777 585.167 735.627 573.96 C 742.362 554.358 750.501 534.708 760.014 516.312 C 806.481 426.456 875.534 346.614 951.869 280.617 C 968.896 265.896 986.27 250.679 1003.95 236.795 C 1011.84 230.601 1020.81 225.36 1028.31 218.751 C 1029.76 217.478 1030.51 217.207 1030.65 215.196 C 1021.8 210.495 942.842 223.316 926.845 217.765 C 923.787 216.703 923.607 215.469 922.367 212.727 C 922.894 209.479 923.854 208.583 925.895 206.117 C 947.15 202.323 970.336 203.866 991.934 202.668 C 1013.16 201.492 1034.12 198.342 1055.45 197.482 z M 981.609 905.687 C 1009.58 891.814 1034.55 865.121 1044.74 835.382 C 1056.33 801.564 1050.32 759.256 1034.65 727.716 C 1010.18 678.448 967.009 646.461 915.471 629.201 C 883.444 618.476 851.811 614.865 818.251 613.823 C 807.321 613.484 795.469 612.981 784.615 614.417 C 772.847 615.157 749.207 614.15 738.942 619.486 C 735.166 624.354 735.032 633.198 734.231 639.212 C 730.125 670.042 729.254 701.348 733.21 732.332 C 740.305 787.899 765.087 855.188 810.869 890.601 C 848.034 919.348 886.126 927.854 932.314 921.932 C 949.086 919.782 966.836 913.852 981.609 905.687 z"/>
</svg>